<?xml version="1.0" encoding="UTF-8" standalone="no"?>
<!DOCTYPE svg  PUBLIC '-//W3C//DTD SVG 1.1//EN'  'http://www.w3.org/Graphics/SVG/1.1/DTD/svg11.dtd'>
<svg xmlns="http://www.w3.org/2000/svg">
<defs>
<font id="Sochi2014-Light" horiz-adv-x="1234">
<font-face underline-position="-102" font-weight="300" descent="-410" panose-1="2 11 4 4 2 2 4 8 3 4" units-per-em="2048" unicode-range="U+000D-2122" bbox="-128 -512 1866 1917" x-height="1065" underline-thickness="102" font-family="Sochi2014" ascent="1638" cap-height="1491"/>
<missing-glyph horiz-adv-x="2048"/>
<glyph glyph-name=".notdef" horiz-adv-x="2048"/>
<glyph glyph-name="glyph1" horiz-adv-x="2048"/>
<glyph glyph-name="glyph1" horiz-adv-x="2048"/>
<glyph glyph-name="uni000D" horiz-adv-x="2048" unicode=""/>
<glyph glyph-name="space" horiz-adv-x="496" unicode=" "/>
<glyph glyph-name="exclam" horiz-adv-x="463" unicode="!" d="M132 88q0 42 30 70q31 29 70 29t70 -29q30 -28 30 -70t-30 -71q-31 -29 -70 -29t-70 29q-30 29 -30 71zM307 292h-149v1199h149v-1199z"/>
<glyph glyph-name="quotedbl" horiz-adv-x="583" unicode='&quot;' d="M328 1086v405h149v-405h-149zM106 1086v405h150v-405h-150z"/>
<glyph glyph-name="numbersign" d="M658 545l94 410h-189q-9 -41 -47 -205t-47 -205h189zM185 0l90 405h-204l31 140h207q3 15 11.5 50.5t18 75t18.5 79.5t18.5 79.5t18 75t11.5 50.5h-207l28 140h207q12 49 87 383h157l-85 -383h190q7 32 44 191q15 65 43 192h157l-85 -383h205l-28 -140h-206 q-47 -203 -48 -205q-24 -98 -49 -205h207l-32 -140h-206l-91 -405h-158l89 405h-189l-92 -405h-158z" unicode="#"/>
<glyph glyph-name="dollar" d="M319 1244v-313q0 -60 17 -83t73 -23h134v525h-134q-57 0 -73 -22q-17 -23 -17 -84zM827 683h-134v-543h134q55 0 72 23t17 85v329q0 60 -17 83t-72 23zM827 0h-134v-171h-150v171h-352v140h352v543h-134q-92 0 -145 25q-55 26 -78 78q-24 54 -24 145v313q0 134 56 190 q57 57 191 57h134v170h150v-170h351v-141h-351v-525h134q135 0 190 -57q56 -58 56 -191v-329q0 -134 -56 -192q-55 -56 -190 -56z" unicode="$"/>
<glyph glyph-name="percent" horiz-adv-x="1445" unicode="%" d="M1114 543h-77q-44 0 -61 -23q-19 -25 -19 -73v-223q0 -48 19 -73q17 -23 61 -23h77q43 0 62 23t19 73v223q0 50 -19 73t-62 23zM811 224v223q0 119 54 171q55 53 172 53h77q118 0 173 -53q53 -52 53 -171v-223q0 -120 -53 -172t-173 -52h-77q-119 0 -172 52 q-54 52 -54 172zM409 1363h-77q-44 0 -62 -23q-18 -22 -18 -72v-224q0 -48 19 -73q18 -24 61 -24h77q43 0 62 24q19 23 19 73v224q0 50 -19 72q-20 23 -62 23zM106 1044v224q0 118 54 170q55 53 172 53h77q119 0 172 -53t53 -170v-224q0 -119 -53 -171q-55 -53 -172 -53h-77 q-117 0 -172 53q-54 53 -54 171zM321 0l669 1491h148l-667 -1491h-150z"/>
<glyph glyph-name="ampersand" horiz-adv-x="1213" unicode="&amp;" d="M860 683h-484q-56 0 -74 -23q-17 -21 -17 -81v-334q0 -62 17 -83q18 -22 74 -22h393q55 0 73 22t18 83v438zM285 1246v-317q0 -60 17 -81q18 -23 74 -23h817v-142h-175v-438q0 -133 -56 -189t-193 -56h-393q-90 0 -146 25q-54 24 -78 77q-24 52 -24 143v334q0 67 18 107 q18 41 59 68q-21 13 -37 30q-15 16 -24 39t-12 47q-4 34 -4 59v317q0 134 56 190q55 55 192 55h632v-141h-632q-55 0 -74 -22q-17 -20 -17 -82z"/>
<glyph glyph-name="quotesingle" horiz-adv-x="327" unicode="&apos;" d="M87 1059v419h149v-419h-149z"/>
<glyph glyph-name="parenleft" horiz-adv-x="638" unicode="(" d="M140 120v825q0 46 6 80q6 36 20 65q13 28 28 50q13 19 40 55l211 283h173l-279 -379q-22 -28 -27 -39q-7 -14 -15 -44q-7 -27 -7 -71v-825q0 -32 3 -54q3 -23 11 -42q5 -13 14 -28l5 -7.5t8 -11t8 -11.5l279 -379h-173l-211 281q-30 39 -42 57q-13 19 -27 49 q-16 33 -20 64q-5 37 -5 82z"/>
<glyph glyph-name="parenright" horiz-adv-x="638" unicode=")" d="M498 945v-825q0 -46 -6 -80q-7 -38 -20 -66q-12 -25 -28 -49q-20 -30 -39 -55l-212 -283h-172l280 379q24 34 27 39q7 12 14 44q7 33 7 71v825q0 38 -7 71q-6 30 -14 43q-7 12 -27 40l-280 379h172l212 -281q34 -47 41 -57q13 -19 27 -49q16 -33 20 -65q5 -37 5 -81z"/>
<glyph glyph-name="asterisk" horiz-adv-x="1069" unicode="*" d="M458 532v369l-324 -190l-68 118l324 183l-324 183l68 115l324 -188v369h136v-369l324 188l68 -115l-324 -183l324 -183l-68 -118l-324 190v-369h-136z"/>
<glyph glyph-name="plus" d="M693 209h-150v383h-381v132h381v384h150v-384h380v-132h-380v-383z" unicode="+"/>
<glyph glyph-name="comma" horiz-adv-x="455" unicode="," d="M132 -205l-132 79l215 360l134 -74z"/>
<glyph glyph-name="hyphen" horiz-adv-x="809" unicode="-" d="M106 516v140h597v-140h-597z"/>
<glyph glyph-name="period" horiz-adv-x="412" unicode="." d="M106 88q0 42 30 70q31 29 71 29t71 -29q29 -28 29 -70q0 -43 -29 -71q-31 -29 -71 -29t-71 29q-30 29 -30 71z"/>
<glyph glyph-name="slash" horiz-adv-x="1004" unicode="/" d="M1039 1577l-919 -2089h-154l918 2089h155z"/>
<glyph glyph-name="zero" d="M829 1350h-420q-57 0 -73 -22q-17 -23 -17 -84v-996q0 -62 17 -85t73 -23h418q55 0 72 23t17 85v996q0 62 -16 84t-71 22zM409 1491h420q133 0 189 -57q55 -56 55 -190v-996q0 -134 -56 -192q-55 -56 -190 -56h-418q-67 0 -115 14q-46 14 -76 43q-28 28 -42 77 q-14 48 -14 114v996q0 134 56 190q57 57 191 57z" unicode="0"/>
<glyph glyph-name="one" d="M162 140h379v1104q0 61 -17 84q-16 22 -73 22h-289v141h289q134 0 191 -57t57 -190v-1104h374v-140h-911v140z" unicode="1"/>
<glyph glyph-name="two" d="M191 1491h636q89 0 143 -24q53 -24 78 -79q25 -56 25 -144v-322q0 -132 -56 -190q-55 -57 -190 -57h-418q-57 0 -73 -22q-17 -23 -17 -84v-429h725v-140h-882v569q0 135 56 190q58 56 191 56h418q55 0 72 23t17 84v322q0 61 -17 84q-16 22 -72 22h-636v141z" unicode="2"/>
<glyph glyph-name="three" d="M827 0h-642v140h642q55 0 72 23t17 85v329q0 60 -17 83t-72 23h-433q-113 0 -113 79q0 17 5 35q3 13 15 30q8 12 16 20q2 2 8 7.5t10 9.5l555 478v8h-728v141h726q12 0 29 -0.5t22 -0.5q19 0 43 -3q22 -3 38 -10q14 -6 28 -17q13 -10 19 -27t6 -40q0 -47 -18 -75 q-17 -26 -63 -68l-478 -417v-8h313q135 0 190 -57q56 -58 56 -191v-329q0 -134 -56 -192q-55 -56 -190 -56z" unicode="3"/>
<glyph glyph-name="four" d="M162 1491h157v-605q0 -61 17 -84q16 -22 73 -22h507v711h157v-1491h-157v639h-507q-134 0 -191 57q-56 56 -56 190v605z" unicode="4"/>
<glyph glyph-name="five" d="M827 0h-636v140h636q55 0 72 23t17 85v329q0 60 -17 83t-72 23h-418q-92 0 -145 25q-55 26 -78 78q-24 54 -24 145v560h882v-141h-725v-419q0 -60 17 -83t73 -23h418q135 0 190 -57q56 -58 56 -191v-329q0 -134 -56 -192q-55 -56 -190 -56z" unicode="5"/>
<glyph glyph-name="six" d="M319 693v-445q0 -62 17 -85t73 -23h418q55 0 72 23t17 85v338q0 61 -17 84t-72 23h-508zM827 0h-418q-67 0 -115 14q-46 14 -76 43q-29 29 -43 77q-13 45 -13 114v996q0 135 56 191t191 56h613v-141h-613q-57 0 -73 -22q-17 -23 -17 -84v-411h508q90 0 143 -25 q55 -26 78 -78q25 -56 25 -144v-338q0 -134 -56 -192q-55 -56 -190 -56z" unicode="6"/>
<glyph glyph-name="seven" d="M207 0l722 1346h-793v132h793q7 0 16.5 -0.5t12.5 -0.5q5 0 29 -2q16 -1 29 -5q12 -4 24 -10q16 -9 22 -17q4 -5 12 -26q6 -15 6 -35q0 -58 -60 -168l-644 -1214h-169z" unicode="7"/>
<glyph glyph-name="eight" d="M319 1246v-317q0 -60 17 -81q18 -23 75 -23h414q32 0 47 5q17 6 28 20q10 13 13 32q3 18 3 47v317q0 61 -18 82q-19 22 -73 22h-414q-55 0 -74 -22q-18 -21 -18 -82zM825 683h-414q-56 0 -74 -23q-18 -22 -18 -81v-334q0 -31 3 -49t14 -32q12 -15 28 -19q20 -5 47 -5h414 q55 0 73 22t18 83v334q0 59 -18 81q-18 23 -73 23zM162 929v317q0 134 56 190q55 55 193 55h414q137 0 192 -55q56 -56 56 -190v-317q0 -66 -17 -108t-60 -67q41 -27 59 -68q18 -40 18 -107v-334q0 -133 -56 -189t-192 -56h-414q-137 0 -193 56t-56 189v334q0 67 18 107 q19 42 58 68q-43 25 -60 67q-16 39 -16 108z" unicode="8"/>
<glyph glyph-name="nine" d="M916 799v445q0 61 -17 84q-16 22 -72 22h-418q-57 0 -73 -22q-17 -23 -17 -84v-339q0 -60 17 -83t73 -23h507zM409 1491h418q89 0 143 -24q53 -24 78 -79q25 -56 25 -144v-996q0 -133 -56 -191q-55 -57 -190 -57h-614v140h614q55 0 72 23t17 85v410h-507q-135 0 -191 56 t-56 191v339q0 134 56 190q57 57 191 57z" unicode="9"/>
<glyph glyph-name="colon" horiz-adv-x="412" unicode=":" d="M106 978q0 27 14 50q14 24 36 36q23 13 51 13q40 0 71 -29q29 -28 29 -70q0 -29 -13 -51t-37 -36q-22 -13 -50 -13q-40 0 -71 29q-30 28 -30 71zM106 88q0 42 30 70q31 29 71 29t71 -29q29 -28 29 -70q0 -43 -29 -71q-31 -29 -71 -29t-71 29q-30 29 -30 71z"/>
<glyph glyph-name="semicolon" horiz-adv-x="455" unicode=";" d="M128 978q0 41 29 70t70 29q40 0 71 -29q30 -28 30 -70q0 -28 -14 -51t-36 -36t-50 -13q-42 0 -71 29t-29 71zM132 -205l-132 79l215 360l134 -74z"/>
<glyph glyph-name="less" d="M149 656l924 472v-150l-651 -322l651 -321v-152z" unicode="&lt;"/>
<glyph glyph-name="equal" d="M1073 720h-911v132h911v-132zM1073 456h-911v132h911v-132z" unicode="="/>
<glyph glyph-name="greater" d="M1086 656l-924 -473v152l651 321l-651 322v150z" unicode="&gt;"/>
<glyph glyph-name="question" horiz-adv-x="932" unicode="?" d="M226 87q0 42 29 71t71 29q40 0 71 -29q29 -28 29 -70q0 -43 -29 -71q-31 -29 -71 -29q-29 0 -51 13q-23 13 -36 36q-13 22 -13 50zM21 1491h558q135 0 191 -56q57 -57 57 -191v-322q0 -133 -57 -190t-191 -57h-85q-31 0 -46 -5q-18 -6 -27 -19q-10 -15 -13 -32 q-3 -18 -3 -50v-277h-157v277q0 134 56 190t190 56h85q56 0 73 23t17 84v322q0 61 -17 84q-16 22 -73 22h-558v141z"/>
<glyph glyph-name="at" horiz-adv-x="2022" unicode="@" d="M1144 925h-303q-30 0 -46 -10q-17 -11 -24 -29t-7 -53v-601q0 -48 17 -70t60 -22h303q41 0 59 21t18 71v601q0 49 -17 71q-16 21 -60 21zM607 224v617q0 79 24 129t73 72q51 23 129 23h319q78 0 129 -23q49 -22 73 -72t24 -129v-617q0 -47 18 -65q19 -19 71 -19h137 q52 0 71 22q18 21 18 80v991q0 62 -18 83t-71 21h-1216q-55 0 -73 -21q-17 -20 -17 -83v-1401q0 -62 17 -82q19 -22 73 -22h935v-141h-935q-137 0 -192 55q-56 56 -56 190v1401q0 134 56 190q55 55 192 55h1216q69 0 114 -13q48 -14 77 -43q30 -30 43 -75t13 -114v-991 q0 -131 -56 -187q-55 -55 -191 -55h-137q-62 0 -99 10q-38 10 -67 41q-48 -51 -149 -51h-319q-120 0 -173 52t-53 172z"/>
<glyph glyph-name="A" horiz-adv-x="1248" unicode="A" d="M888 565l-260 772h-8l-260 -772h528zM0 0l467 1363q27 81 59 113t98 32q63 0 95 -32q30 -30 59 -113l470 -1363h-175l-142 424h-614l-142 -424h-175z"/>
<glyph glyph-name="B" horiz-adv-x="1201" unicode="B" d="M298 1246v-421h527q32 0 47 5q17 6 28 20q10 13 13 32q3 18 3 47v317q0 61 -18 82q-19 22 -73 22h-437q-54 0 -73 -22q-17 -20 -17 -82zM825 683h-527v-438q0 -62 17 -83q18 -22 73 -22h437q55 0 73 22t18 83v334q0 59 -18 81q-18 23 -73 23zM825 0h-437q-136 0 -192 56 t-56 189v1001q0 134 56 190q55 55 192 55h437q138 0 193 -55t55 -190v-317q0 -66 -17 -108t-60 -67q41 -27 59 -68q18 -40 18 -107v-334q0 -134 -55 -189q-56 -56 -193 -56z"/>
<glyph glyph-name="C" horiz-adv-x="937" unicode="C" d="M388 1491h506v-141h-506q-55 0 -73 -23q-17 -21 -17 -83v-996q0 -64 17 -85q18 -23 73 -23h506v-140h-506q-135 0 -191 56q-57 57 -57 192v996q0 133 57 190t191 57z"/>
<glyph glyph-name="D" horiz-adv-x="1252" unicode="D" d="M867 1350h-552v-1210h549q29 0 47 6t27 20q12 18 14 32q3 20 3 50v996q0 61 -17 84q-16 22 -71 22zM158 1491h709q133 0 189 -57q56 -58 56 -190v-996q0 -135 -57 -192q-56 -56 -191 -56h-706v1491z"/>
<glyph glyph-name="E" horiz-adv-x="1022" unicode="E" d="M388 1491h549v-141h-549q-55 0 -73 -23q-17 -21 -17 -83v-419h639v-142h-639v-435q0 -64 17 -85q18 -23 73 -23h549v-140h-549q-135 0 -191 56q-57 57 -57 192v996q0 133 57 190t191 57z"/>
<glyph glyph-name="F" horiz-adv-x="979" unicode="F" d="M396 1491h541v-141h-541q-26 0 -39 -4q-18 -5 -26 -11q-11 -7 -15 -21q-6 -18 -7 -29q-2 -22 -2 -41v-419h630v-142h-630v-683h-158v1244q0 133 57 190t190 57z"/>
<glyph glyph-name="G" horiz-adv-x="1171" unicode="G" d="M805 0h-417q-135 0 -191 56q-57 57 -57 192v996q0 133 57 190t191 57h664v-141h-664q-55 0 -73 -22q-17 -21 -17 -84v-996q0 -64 17 -85q18 -23 73 -23h417q55 0 72 23t17 85v435h-319v142h477v-577q0 -136 -56 -192t-191 -56z"/>
<glyph glyph-name="H" horiz-adv-x="1248" unicode="H" d="M1091 1491v-1491h-158v683h-618v-683h-157v1491h157v-666h618v666h158z"/>
<glyph glyph-name="I" horiz-adv-x="472" unicode="I" d="M315 0h-157v1491h157v-1491z"/>
<glyph glyph-name="J" horiz-adv-x="829" unicode="J" d="M435 0h-435v140h435q25 0 38 4q16 5 26 12q9 6 15 20q7 15 8 30q2 22 2 42v1243h157v-1243q0 -134 -56 -192q-55 -56 -190 -56z"/>
<glyph glyph-name="K" horiz-adv-x="1191" unicode="K" d="M1089 0h-158v532q0 61 -17 84t-73 23h-526v-639h-157v1491h157v-711h79l522 711h192l-525 -711h258q135 0 191 -56q57 -57 57 -192v-532z"/>
<glyph glyph-name="L" horiz-adv-x="894" unicode="L" d="M140 1491h158v-1243q0 -64 17 -85q18 -23 73 -23h506v-140h-506q-135 0 -191 56q-57 57 -57 192v1243z"/>
<glyph glyph-name="M" horiz-adv-x="1413" unicode="M" d="M1266 0h-158v1321h-9l-225 -565q-36 -85 -74 -125q-40 -41 -93 -41q-51 0 -91 42q-40 41 -73 124l-228 563h-8v-1319h-158v1352q0 72 37 113q38 43 108 43q61 0 102 -41q42 -42 79 -136l228 -567h8l228 567q38 94 80 136q41 41 101 41q70 0 108 -43t38 -113v-1352z"/>
<glyph glyph-name="N" horiz-adv-x="1315" unicode="N" d="M1167 1491v-1329q0 -179 -138 -179q-57 0 -92 27q-33 26 -63 90l-559 1210h-8v-1310h-158v1344q0 45 12 78t28 49t39 25q20 8 36 10t26 2q60 0 95 -26q34 -25 60 -82l557 -1219h8v1310h157z"/>
<glyph glyph-name="O" d="M850 1350h-462q-54 0 -72 -23t-18 -83v-996q0 -62 18 -85t72 -23h460q26 0 39 4q14 4 25 12q10 7 16 20q5 12 7 30q2 22 2 42v996q0 61 -16 83q-17 23 -71 23zM388 1491h462q134 0 190 -57q55 -56 55 -190v-996q0 -135 -57 -192q-56 -56 -190 -56h-460q-135 0 -191 56 q-57 57 -57 192v996q0 133 57 190t191 57z" unicode="O"/>
<glyph glyph-name="P" horiz-adv-x="1166" unicode="P" d="M837 1350h-441q-26 0 -39 -4q-18 -5 -26 -11q-11 -7 -15 -21q-6 -18 -7 -29q-2 -22 -2 -41v-507h528q55 0 73 23q17 21 17 83v401q0 61 -17 84q-16 22 -71 22zM307 0h-158v1244q0 133 57 190t190 57h441q133 0 189 -57q56 -58 56 -190v-401q0 -135 -56 -191t-191 -56 h-528v-596z"/>
<glyph glyph-name="Q" d="M850 1350h-462q-54 0 -72 -23t-18 -83v-996q0 -62 18 -85t72 -23h460q26 0 39 4q14 4 25 12q10 7 16 20q5 12 7 30q2 22 2 42v996q0 61 -16 83q-17 23 -71 23zM388 1491h462q134 0 190 -57q55 -56 55 -190v-996q0 -135 -57 -192q-56 -56 -190 -56h-151v-292h-158v292 h-151q-135 0 -191 56q-57 57 -57 192v996q0 133 57 190t191 57z" unicode="Q"/>
<glyph glyph-name="R" horiz-adv-x="1183" unicode="R" d="M837 1350h-441q-25 0 -38 -4q-18 -5 -26 -11q-12 -8 -16 -21q-6 -18 -7 -29q-2 -22 -2 -41v-486h528q29 0 47 6t26 18q12 17 14 32q3 18 3 50v380q0 61 -17 84q-16 22 -71 22zM307 0h-158v1244q0 133 57 190t190 57h441q133 0 189 -57q56 -58 56 -190v-380 q0 -135 -56 -190q-58 -56 -191 -56h-234l519 -618h-206l-514 618h-93v-618z"/>
<glyph glyph-name="S" horiz-adv-x="1106" unicode="S" d="M762 0h-634v140h634q56 0 73 23t17 85v329q0 60 -17 83t-73 23h-417q-91 0 -144 25q-56 26 -79 78q-24 54 -24 145v313q0 134 56 190q57 57 191 57h635v-141h-635q-56 0 -72 -22q-17 -23 -17 -84v-313q0 -60 17 -83t72 -23h417q134 0 191 -57t57 -191v-329 q0 -135 -57 -192q-56 -56 -191 -56z"/>
<glyph glyph-name="T" horiz-adv-x="1085" unicode="T" d="M622 0h-158v1350h-464v141h1086v-141h-464v-1350z"/>
<glyph glyph-name="U" horiz-adv-x="1230" unicode="U" d="M149 1491h158v-1243q0 -62 17 -85t72 -23h439q55 0 73 23q17 21 17 85v1243h157v-1243q0 -136 -56 -192t-191 -56h-439q-91 0 -144 25q-55 26 -78 78q-25 56 -25 145v1243z"/>
<glyph glyph-name="V" horiz-adv-x="1191" unicode="V" d="M171 1491l421 -1329h9l421 1329h171l-456 -1402q-16 -51 -47 -79q-30 -27 -94 -27t-94 27t-46 79l-456 1402h171z"/>
<glyph glyph-name="W" horiz-adv-x="1776" unicode="W" d="M149 1491h158v-1243q0 -62 17 -85t72 -23h324q50 0 69 24q20 25 20 84v1243h158v-1243q0 -62 17 -85t73 -23h323q24 0 39 4q17 5 26 11q8 6 15 21t8 30q2 22 2 42v1243h158v-1243q0 -135 -57 -192q-56 -56 -191 -56h-323q-121 0 -169 69q-51 -69 -168 -69h-324 q-91 0 -144 25q-55 26 -78 78q-25 56 -25 145v1243z"/>
<glyph glyph-name="X" horiz-adv-x="1098" unicode="X" d="M1099 0h-187l-363 628l-362 -628h-187l456 756l-441 735h183l351 -605l352 605h183l-441 -735z"/>
<glyph glyph-name="Y" horiz-adv-x="1145" unicode="Y" d="M106 1491h158v-584q0 -60 17 -83t73 -23h438q56 0 73 23t17 83v584h157v-584q0 -133 -56 -191q-55 -56 -191 -56h-140v-660h-158v660h-140q-91 0 -144 25q-54 25 -79 79q-25 53 -25 143v584z"/>
<glyph glyph-name="Z" horiz-adv-x="1059" unicode="Z" d="M1018 0h-827q-148 0 -148 108q0 52 55 132l748 1102v8h-761v141h784q70 0 110 -23q39 -22 39 -82q0 -54 -53 -136l-748 -1101v-9h801v-140z"/>
<glyph glyph-name="bracketleft" horiz-adv-x="638" unicode="[" d="M290 1359v-1653h306v-132h-456v1917h456v-132h-306z"/>
<glyph glyph-name="backslash" horiz-adv-x="1004" unicode="\" d="M886 -512l-920 2089h156l917 -2089h-153z"/>
<glyph glyph-name="bracketright" horiz-adv-x="638" unicode="]" d="M349 -294v1653h-306v132h455v-1917h-455v132h306z"/>
<glyph glyph-name="asciicircum" horiz-adv-x="970" unicode="^" d="M784 1065l-294 303h-8l-295 -303l-89 94l294 292q44 40 94 40q49 0 93 -40l295 -292z"/>
<glyph glyph-name="underscore" d="M0 0v132h1236v-132h-1236z" unicode="_"/>
<glyph glyph-name="grave" horiz-adv-x="447" unicode="`" d="M63 1431l114 77l207 -303l-116 -77z"/>
<glyph glyph-name="a" horiz-adv-x="937" unicode="a" d="M691 226v274h-388q-28 0 -46 -12t-24 -31q-7 -23 -7 -50v-181q0 -46 17 -71q16 -23 60 -23h311q43 0 60 23t17 71zM77 226v181q0 118 53 171q54 54 173 54h388v207q0 48 -17 71t-60 23h-496v132h496q119 0 172 -53t53 -173v-613q0 -119 -53 -172q-54 -54 -172 -54h-311 q-119 0 -173 54q-53 53 -53 172z"/>
<glyph glyph-name="b" horiz-adv-x="988" unicode="b" d="M332 132h333q42 0 60 24q17 23 17 70v613q0 48 -17 71t-60 23h-409v-707q0 -48 17 -71t59 -23zM106 1491h150v-426h409q119 0 172 -53t53 -173v-613q0 -119 -53 -172q-54 -54 -172 -54h-333q-118 0 -172 54t-54 172v1265z"/>
<glyph glyph-name="c" horiz-adv-x="744" unicode="c" d="M98 226v613q0 119 54 173q53 53 171 53h380v-132h-380q-41 0 -58 -23t-17 -71v-613q0 -48 17 -71t58 -23h380v-132h-380q-117 0 -171 54t-54 172z"/>
<glyph glyph-name="d" horiz-adv-x="988" unicode="d" d="M323 132h333q44 0 60 24q17 25 17 70v707h-410q-42 0 -59 -23q-16 -22 -16 -71v-613q0 -49 16 -71q17 -23 59 -23zM733 1491h149v-1265q0 -118 -54 -172t-172 -54h-333q-118 0 -172 54q-53 53 -53 172v613q0 120 53 173t172 53h410v426z"/>
<glyph glyph-name="e" horiz-adv-x="937" unicode="e" d="M248 839v-253h386q43 0 60 23t17 70v160q0 46 -17 71q-16 23 -60 23h-311q-42 0 -59 -23q-16 -22 -16 -71zM860 839v-160q0 -118 -54 -172t-172 -54h-386v-227q0 -49 16 -71q17 -23 59 -23h506v-132h-506q-118 0 -172 54q-53 53 -53 172v613q0 120 53 173t172 53h311 q119 0 172 -53q54 -54 54 -173z"/>
<glyph glyph-name="f" horiz-adv-x="574" unicode="f" d="M256 0h-150v1266q0 117 54 171t172 54h221v-132h-221q-43 0 -60 -23q-16 -22 -16 -70v-201h297v-132h-297v-933z"/>
<glyph glyph-name="g" horiz-adv-x="988" unicode="g" d="M656 933h-333q-42 0 -59 -23q-16 -22 -16 -71v-613q0 -49 16 -71q17 -23 59 -23h410v707q0 46 -17 71q-16 23 -60 23zM882 839v-1040q0 -117 -54 -171t-172 -54h-524v132h524q43 0 60 23t17 70v201h-410q-118 0 -172 54q-53 53 -53 172v613q0 120 53 173t172 53h333 q119 0 172 -53q54 -54 54 -173z"/>
<glyph glyph-name="h" horiz-adv-x="970" unicode="h" d="M106 1491h150v-426h387q82 0 129 -23q50 -24 74 -74q23 -47 23 -129v-839h-149v839q0 47 -18 71q-17 23 -59 23h-387v-933h-150v1491z"/>
<glyph glyph-name="i" horiz-adv-x="378" unicode="i" d="M94 1394q0 43 27 70t68 27q25 0 49 -13q22 -12 34 -34q13 -24 13 -49q0 -42 -27 -69t-68 -27q-42 0 -69 27t-27 68zM115 0v1065h149v-1065h-149z"/>
<glyph glyph-name="j" horiz-adv-x="433" unicode="j" d="M149 1395q0 41 28 69q27 27 69 27q41 0 68 -27t27 -70q0 -41 -27 -68t-69 -27q-21 0 -38 7q-19 8 -30 20q-13 15 -20 31q-8 19 -8 38zM171 1065h148v-1266q0 -118 -53 -171q-54 -54 -172 -54h-222v132h222q42 0 60 23q17 21 17 70v1266z"/>
<glyph glyph-name="k" horiz-adv-x="949" unicode="k" d="M643 492h-379v-492h-149v1491h149v-867h49l386 441h187l-388 -441h145q79 0 129 -24q51 -25 74 -72t23 -130v-398h-149v398q0 46 -18 70t-59 24z"/>
<glyph glyph-name="l" horiz-adv-x="378" unicode="l" d="M115 0v1491h149v-1491h-149z"/>
<glyph glyph-name="m" horiz-adv-x="1502" unicode="m" d="M1171 933h-268q-42 0 -59 -23t-17 -71v-839h-150v839q0 49 -16 71q-17 23 -60 23h-269q-42 0 -59 -23t-17 -71v-839h-150v839q0 119 54 173q53 53 172 53h269q105 0 151 -57q26 32 62 44q39 13 89 13h268q120 0 173 -53t53 -173v-839h-149v839q0 46 -17 71q-16 23 -60 23 z"/>
<glyph glyph-name="n" horiz-adv-x="974" unicode="n" d="M643 933h-311q-43 0 -60 -23q-16 -22 -16 -71v-839h-150v839q0 119 54 173q53 53 172 53h311q82 0 129 -23q50 -24 74 -74q23 -47 23 -129v-839h-149v839q0 47 -18 71q-17 23 -59 23z"/>
<glyph glyph-name="o" horiz-adv-x="979" unicode="o" d="M656 933h-333q-42 0 -59 -23q-16 -22 -16 -71v-613q0 -49 16 -71q17 -23 59 -23h333q44 0 60 24q17 25 17 70v613q0 46 -17 71q-16 23 -60 23zM98 226v613q0 119 54 173q53 53 171 53h333q120 0 173 -53t53 -173v-613q0 -119 -53 -172q-54 -54 -173 -54h-333 q-117 0 -171 54t-54 172z"/>
<glyph glyph-name="p" horiz-adv-x="988" unicode="p" d="M665 933h-333q-42 0 -59 -23t-17 -71v-707h409q42 0 60 24q17 23 17 70v613q0 48 -17 71t-60 23zM256 -426h-150v1265q0 119 54 173q53 53 172 53h333q119 0 172 -53t53 -173v-613q0 -119 -53 -172q-54 -54 -172 -54h-409v-426z"/>
<glyph glyph-name="q" horiz-adv-x="988" unicode="q" d="M656 933h-333q-42 0 -59 -23q-16 -22 -16 -71v-613q0 -49 16 -71q17 -23 59 -23h410v707q0 46 -17 71q-16 23 -60 23zM882 -426h-149v426h-410q-118 0 -172 54q-53 53 -53 172v613q0 120 53 173t172 53h333q119 0 172 -53q54 -54 54 -173v-1265z"/>
<glyph glyph-name="r" horiz-adv-x="574" unicode="r" d="M256 0h-150v839q0 119 54 173q53 53 172 53h221v-132h-221q-43 0 -60 -23q-16 -22 -16 -71v-839z"/>
<glyph glyph-name="s" horiz-adv-x="851" unicode="s" d="M775 382v-156q0 -119 -53 -172q-54 -54 -173 -54h-441v132h441q43 0 60 24q17 25 17 70v156q0 47 -17 70t-60 23h-246q-119 0 -173 54q-53 53 -53 172v138q0 120 53 173t173 53h441v-132h-441q-31 0 -47 -11q-18 -12 -24 -32t-6 -51v-138q0 -45 17 -70q17 -24 60 -24h246 q120 0 173 -53t53 -172z"/>
<glyph glyph-name="t" horiz-adv-x="574" unicode="t" d="M106 1363h150v-298h297v-132h-297v-707q0 -49 16 -71q17 -23 60 -23h221v-132h-221q-118 0 -172 54t-54 172v1137z"/>
<glyph glyph-name="u" horiz-adv-x="974" unicode="u" d="M332 132h311q41 0 59 24t18 70v839h149v-839q0 -118 -54 -172t-172 -54h-311q-118 0 -172 54t-54 172v839h150v-839q0 -49 16 -71q17 -23 60 -23z"/>
<glyph glyph-name="v" horiz-adv-x="911" unicode="v" d="M162 1065l289 -907h9l290 907h162l-320 -967q-11 -33 -28 -57q-16 -23 -36 -34t-36 -15q-15 -4 -36 -4q-23 0 -38 4q-16 4 -36 15q-18 10 -35 33q-15 20 -28 58l-319 967h162z"/>
<glyph glyph-name="w" horiz-adv-x="1502" unicode="w" d="M332 132h269q42 0 59 23t17 71v839h150v-839q0 -48 17 -71t59 -23h268q44 0 60 23q17 25 17 71v839h149v-839q0 -120 -53 -173t-173 -53h-268q-105 0 -151 57q-27 -33 -62 -45q-36 -12 -89 -12h-269q-119 0 -172 53q-54 54 -54 173v839h150v-839q0 -49 16 -71 q17 -23 60 -23z"/>
<glyph glyph-name="x" horiz-adv-x="868" unicode="x" d="M869 0h-174l-260 433l-260 -433h-175l354 547l-337 518h170l248 -400l246 400h171l-334 -518z"/>
<glyph glyph-name="y" horiz-adv-x="974" unicode="y" d="M869 1065v-1266q0 -117 -54 -171t-172 -54h-503v132h503q41 0 59 23t18 70v201h-388q-118 0 -172 54t-54 172v839h150v-839q0 -49 16 -71q17 -23 60 -23h388v933h149z"/>
<glyph glyph-name="z" horiz-adv-x="825" unicode="z" d="M784 0h-601q-33 0 -43 1q-17 2 -37 6q-22 5 -32 15t-19 29t-9 47q0 58 57 134l518 693v8h-545v132h561q34 0 44 -1q14 -1 37 -6q21 -4 33 -15q13 -11 21 -29q9 -20 9 -47q0 -57 -36 -107l-535 -720v-8h577v-132z"/>
<glyph glyph-name="braceleft" horiz-adv-x="626" unicode="{" d="M341 1254v-563q0 -65 -11 -99q-12 -37 -38 -60q17 -14 28 -35q12 -22 16 -49q5 -33 5 -74v-563q0 -47 17 -70q16 -22 59 -22h152v-132h-152q-120 0 -173 52t-53 172v563q0 49 -15 71t-58 22h-69v131h69q28 0 45 11q16 10 22 30q6 19 6 52v563q0 120 53 172t173 52h152 v-132h-152q-43 0 -59 -22q-17 -23 -17 -70z"/>
<glyph glyph-name="bar" horiz-adv-x="344" unicode="|" d="M98 -512v2089h150v-2089h-150z"/>
<glyph glyph-name="braceright" horiz-adv-x="626" unicode="}" d="M275 -189v563q0 65 11 99q12 37 37 59q-19 19 -28 36q-11 20 -15 49q-5 33 -5 74v563q0 47 -17 70q-16 22 -60 22h-149v132h149q117 0 172 -53q54 -53 54 -171v-563q0 -49 16 -71t60 -22h69v-131h-69q-29 0 -46 -11t-23 -30q-7 -23 -7 -52v-563q0 -119 -54 -171 q-55 -53 -172 -53h-149v132h149q29 0 46 11q16 10 24 30q7 18 7 51z"/>
<glyph glyph-name="asciitilde" horiz-adv-x="1077" unicode="~" d="M394 726h-73q-29 0 -45 -10t-22 -29t-6 -53v-85h-150v85q0 119 53 172q52 52 170 52h73q40 0 68 -7q31 -8 50 -18q22 -12 38 -29q22 -24 26 -30l6 -9t8 -12.5t8 -13.5q18 -27 24 -35q9 -12 24 -21q17 -10 35 -10h73q44 0 60 21q17 22 17 70v86h149v-86q0 -118 -54 -170 q-55 -53 -172 -53h-73q-35 0 -69 8q-31 7 -50 17q-21 10 -37 28q-21 22 -26 31l-6 9t-8 12.5t-8 13.5q-13 22 -23 36q-8 11 -24 20q-18 10 -36 10z"/>
<glyph glyph-name="uni00A0" horiz-adv-x="496" unicode=" "/>
<glyph glyph-name="cent" d="M405 839v-613q0 -45 17 -70q16 -24 60 -24h125v801h-125q-44 0 -60 -23q-17 -25 -17 -71zM256 226v613q0 79 24 129q25 51 72 74t130 23h125v213h137v-213h215v-132h-215v-801h215v-132h-215v-213h-137v213h-125q-118 0 -172 54t-54 172z" unicode="¢"/>
<glyph glyph-name="sterling" d="M512 1491h336v-141h-336q-56 0 -73 -23t-17 -83v-179h432v-132h-432v-685q0 -62 17 -85t73 -23h596v-140h-596q-135 0 -191 56q-57 57 -57 192v685h-179v132h179v179q0 133 57 190t191 57z" unicode="£"/>
<glyph glyph-name="yen" d="M1014 569h-317v-130h317v-132h-317v-307h-158v307h-317v132h317v130h-317v132h251l-379 790h178l346 -743l345 743h179l-382 -790h254v-132z" unicode="¥"/>
<glyph glyph-name="dieresis" horiz-adv-x="574" unicode="¨" d="M349 1395q0 40 28 68t68 28t68 -28t28 -68t-28 -68t-68 -28t-68 28t-28 68zM34 1395q0 40 28 68t68 28t68 -28t28 -68t-28 -68t-68 -28t-68 28t-28 68z"/>
<glyph glyph-name="copyright" horiz-adv-x="1597" unicode="©" d="M520 583v350q0 119 53 172q54 54 173 54h336v-133h-336q-43 0 -60 -23t-17 -70v-350q0 -47 17 -70t60 -23h336v-132h-336q-120 0 -173 53t-53 172zM1231 1359h-865q-42 0 -59 -23t-17 -70v-1040q0 -48 17 -71t59 -23h865q42 0 59 23t17 71v1040q0 27 -7 50q-6 18 -23 31 q-17 12 -46 12zM140 226v1040q0 118 54 172q53 53 172 53h865q120 0 173 -53t53 -172v-1040q0 -119 -53 -172q-54 -54 -173 -54h-865q-118 0 -172 54t-54 172z"/>
<glyph glyph-name="guillemotleft" horiz-adv-x="868" unicode="«" d="M784 862l-213 -287l213 -288l-117 -80l-267 368l267 368zM553 984l-297 -409l297 -409l-116 -81l-352 490l352 490z"/>
<glyph glyph-name="uni00AD" horiz-adv-x="809" unicode="­" d="M106 516v140h597v-140h-597z"/>
<glyph glyph-name="registered" horiz-adv-x="1597" unicode="®" d="M890 1026h-162q-42 0 -59 -23t-17 -70v-153h238q44 0 60 23q17 25 17 71v59q0 47 -17 70t-60 23zM652 358h-150v575q0 119 53 172q54 54 173 54h162q118 0 172 -54t54 -172v-59q0 -119 -54 -173q-53 -53 -172 -53h-18l266 -290h-183l-262 290h-41v-290zM1231 1359h-865 q-42 0 -59 -23t-17 -70v-1040q0 -48 17 -71t59 -23h865q42 0 59 23t17 71v1040q0 27 -7 50q-6 18 -23 31q-17 12 -46 12zM140 226v1040q0 118 54 172q53 53 172 53h865q120 0 173 -53t53 -172v-1040q0 -119 -53 -172q-54 -54 -173 -54h-865q-118 0 -172 54t-54 172z"/>
<glyph glyph-name="acute" horiz-adv-x="447" unicode="´" d="M270 1508l114 -77l-205 -303l-116 77z"/>
<glyph glyph-name="cedilla" horiz-adv-x="638" unicode="¸" d="M323 -104q96 0 137 -37q42 -37 42 -123q0 -84 -42 -123t-130 -39h-194v123h194q36 0 36 39q0 36 -38 36q-89 0 -130 38q-40 37 -40 124v66h136v-66q0 -38 29 -38z"/>
<glyph glyph-name="guillemotright" horiz-adv-x="868" unicode="»" d="M85 287l213 288l-213 287l118 81l266 -368l-266 -368zM315 166l299 409l-299 409l118 81l351 -490l-351 -490z"/>
<glyph glyph-name="circumflex" horiz-adv-x="744" unicode="ˆ" d="M164 1128l-95 99l212 210q41 41 91 41q51 0 95 -41l210 -210l-96 -99l-205 218h-8z"/>
<glyph glyph-name="tilde" horiz-adv-x="744" unicode="˜" d="M260 1355q-15 0 -28 -5q-10 -4 -18 -12q-6 -6 -9 -22q-3 -15 -3 -26q0 -2 -0.5 -14t-0.5 -22v-49h-142v49q0 62 9 102t32 69q22 28 61 40q42 13 99 13q39 0 66 -7q25 -7 44 -17q16 -9 30 -26q13 -15 18 -28q1 -2 3.5 -7.5l5 -11t4.5 -11.5q10 -26 21 -37q12 -12 34 -12 q18 0 25 2q12 3 17 10q9 12 10 13q2 4 4 21q2 18 2 23q0 2 0.5 12.5t0.5 18.5v49h140v-49q0 -122 -42 -173t-157 -51q-40 0 -67 7q-30 8 -45 16q-17 9 -30 25q-12 14 -18 27q-8 16 -13 29q-13 31 -21 40q-12 14 -32 14z"/>
<glyph glyph-name="afii10023" horiz-adv-x="1022" unicode="Ё" d="M641 1676q0 43 29 71q31 29 71 29q42 0 71 -29t29 -71q0 -41 -29 -70t-71 -29q-40 0 -71 29q-29 28 -29 70zM266 1676q0 43 29 71q31 29 71 29t71 -29q30 -29 30 -71q0 -27 -14 -50t-37 -36t-50 -13q-40 0 -71 29q-29 28 -29 70zM388 1491h549v-141h-549q-55 0 -73 -23 q-17 -21 -17 -83v-419h639v-142h-639v-435q0 -64 17 -85q18 -23 73 -23h549v-140h-549q-135 0 -191 56q-57 57 -57 192v996q0 133 57 190t191 57z"/>
<glyph glyph-name="afii10051" horiz-adv-x="1451" unicode="Ђ" d="M1120 0h-315v140h315q54 0 72 23t18 85v338q0 62 -18 84q-18 23 -72 23h-562v-693h-158v1350h-400v141h1106v-141h-548v-517h562q134 0 191 -57t57 -190v-338q0 -135 -57 -192q-56 -56 -191 -56z"/>
<glyph glyph-name="afii10052" horiz-adv-x="937" unicode="Ѓ" d="M558 1917l113 -79l-204 -283l-115 77zM396 1491h541v-141h-541q-26 0 -39 -4q-18 -5 -26 -11q-11 -7 -15 -21q-6 -18 -7 -29q-2 -22 -2 -41v-1244h-158v1244q0 133 57 190t190 57z"/>
<glyph glyph-name="afii10053" horiz-adv-x="1059" unicode="Є" d="M976 1350h-373q-29 0 -49 -6t-35 -24t-24 -33q-8 -13 -24 -47l-199 -415h704v-142h-704l199 -431q4 -8 16 -33q2 -3 7 -11.5t8 -14.5q9 -17 17 -23q5 -4 21 -16q10 -7 28 -11q15 -3 35 -3h373v-140h-390q-54 0 -97 10q-40 9 -69 34q-32 27 -52 60t-49 94l-206 441 q-28 59 -28 115q0 59 28 115l206 424q25 51 49 89q20 31 52 60q31 28 70 38q42 11 96 11h390v-141z"/>
<glyph glyph-name="afii10054" horiz-adv-x="1106" unicode="Ѕ" d="M762 0h-634v140h634q56 0 73 23t17 85v329q0 60 -17 83t-73 23h-417q-91 0 -144 25q-56 26 -79 78q-24 54 -24 145v313q0 134 56 190q57 57 191 57h635v-141h-635q-56 0 -72 -22q-17 -23 -17 -84v-313q0 -60 17 -83t72 -23h417q134 0 191 -57t57 -191v-329 q0 -135 -57 -192q-56 -56 -191 -56z"/>
<glyph glyph-name="afii10055" horiz-adv-x="472" unicode="І" d="M315 0h-157v1491h157v-1491z"/>
<glyph glyph-name="afii10056" horiz-adv-x="472" unicode="Ї" d="M272 1654q0 43 29 72q30 30 71 30q42 0 72 -30q29 -29 29 -72q0 -42 -29 -70q-31 -29 -72 -29q-40 0 -71 29q-29 28 -29 70zM0 1654q0 42 30 72t70 30q41 0 71 -30t30 -72t-30 -70q-31 -29 -71 -29q-42 0 -71 29t-29 70zM315 0h-157v1491h157v-1491z"/>
<glyph glyph-name="afii10057" horiz-adv-x="829" unicode="Ј" d="M435 0h-435v140h435q25 0 38 4q16 5 26 12q9 6 15 20q7 15 8 30q2 22 2 42v1243h157v-1243q0 -134 -56 -192q-55 -56 -190 -56z"/>
<glyph glyph-name="afii10058" horiz-adv-x="1878" unicode="Љ" d="M1108 140h441q54 0 71 23q16 22 16 85v378q0 61 -17 84t-73 23h-528v-485q0 -62 17 -85t73 -23zM1018 1342v-468h528q91 0 144 -25q55 -26 78 -78q25 -56 25 -145v-378q0 -136 -55 -192t-189 -56h-441q-136 0 -192 56t-56 192v1069h-8l-684 -1317h-189l722 1370 q34 65 77 102q42 36 108 36q64 0 98 -42q34 -41 34 -124z"/>
<glyph glyph-name="afii10059" horiz-adv-x="1950" unicode="Њ" d="M1180 140h441q54 0 71 23q16 22 16 85v353q0 60 -17 83t-73 23h-527v-459q0 -62 17 -85t72 -23zM933 1491h158v-643h527q136 0 192 -56t56 -191v-353q0 -134 -56 -192q-55 -56 -189 -56h-441q-134 0 -190 56q-57 57 -57 189v462h-618v-707h-157v1491h157v-643h618v643z "/>
<glyph glyph-name="afii10060" horiz-adv-x="1417" unicode="Ћ" d="M1312 0h-158v586q0 61 -17 84t-72 23h-507v-693h-158v1350h-400v141h1106v-141h-548v-517h507q134 0 191 -57q56 -56 56 -190v-586z"/>
<glyph glyph-name="afii10061" horiz-adv-x="1191" unicode="Ќ" d="M643 1917l113 -79l-205 -283l-114 77zM1089 0h-158v532q0 61 -17 84t-73 23h-526v-639h-157v1491h157v-711h79l522 711h192l-525 -711h258q135 0 191 -56q57 -57 57 -192v-532z"/>
<glyph glyph-name="afii10062" horiz-adv-x="1158" unicode="Ў" d="M518 1687h83q43 0 59 22q15 21 15 69v11h150v-11q0 -81 -23 -128q-24 -50 -73 -72q-51 -23 -128 -23h-83q-117 0 -172 53q-54 52 -54 170v11h149v-11q0 -46 17 -69q16 -22 60 -22zM762 0h-634v140h634q56 0 73 23t17 85v414h-507q-135 0 -191 56t-56 191v582h158v-582 q0 -60 17 -83t72 -23h507v688h158v-1243q0 -135 -57 -192q-56 -56 -191 -56z"/>
<glyph glyph-name="afii10145" horiz-adv-x="1230" unicode="Џ" d="M149 1491h158v-1243q0 -62 17 -85t72 -23h439q55 0 73 23q17 21 17 85v1243h157v-1243q0 -136 -56 -192t-191 -56h-140v-292h-158v292h-141q-91 0 -144 25q-55 26 -78 78q-25 56 -25 145v1243z"/>
<glyph glyph-name="afii10017" horiz-adv-x="1248" unicode="А" d="M888 565l-260 772h-8l-260 -772h528zM0 0l467 1363q27 81 59 113t98 32q63 0 95 -32q30 -30 59 -113l470 -1363h-175l-142 424h-614l-142 -424h-175z"/>
<glyph glyph-name="afii10018" horiz-adv-x="1191" unicode="Б" d="M298 693v-445q0 -64 17 -85q18 -23 73 -23h439q55 0 72 23t17 85v338q0 61 -17 84t-72 23h-529zM827 0h-439q-135 0 -191 56q-57 57 -57 192v996q0 134 57 191q56 56 191 56h634v-141h-634q-55 0 -73 -22q-17 -21 -17 -84v-411h529q90 0 143 -25q55 -26 78 -78 q25 -56 25 -144v-338q0 -134 -56 -192q-55 -56 -190 -56z"/>
<glyph glyph-name="afii10019" horiz-adv-x="1201" unicode="В" d="M298 1246v-421h527q32 0 47 5q17 6 28 20q10 13 13 32q3 18 3 47v317q0 61 -18 82q-19 22 -73 22h-437q-54 0 -73 -22q-17 -20 -17 -82zM825 683h-527v-438q0 -62 17 -83q18 -22 73 -22h437q55 0 73 22t18 83v334q0 59 -18 81q-18 23 -73 23zM825 0h-437q-136 0 -192 56 t-56 189v1001q0 134 56 190q55 55 192 55h437q138 0 193 -55t55 -190v-317q0 -66 -17 -108t-60 -67q41 -27 59 -68q18 -40 18 -107v-334q0 -134 -55 -189q-56 -56 -193 -56z"/>
<glyph glyph-name="afii10020" horiz-adv-x="937" unicode="Г" d="M396 1491h541v-141h-541q-26 0 -39 -4q-18 -5 -26 -11q-11 -7 -15 -21q-6 -18 -7 -29q-2 -22 -2 -41v-1244h-158v1244q0 133 57 190t190 57z"/>
<glyph glyph-name="afii10021" horiz-adv-x="1473" unicode="Д" d="M733 1337l-396 -1197h801l-396 1197h-9zM1295 0h-1116v-298h-158v438h141l417 1223q28 83 59 113q34 32 99 32q63 0 95 -32q31 -31 58 -113l422 -1223h141v-438h-158v298z"/>
<glyph glyph-name="afii10022" horiz-adv-x="1022" unicode="Е" d="M388 1491h549v-141h-549q-55 0 -73 -23q-17 -21 -17 -83v-419h639v-142h-639v-435q0 -64 17 -85q18 -23 73 -23h549v-140h-549q-135 0 -191 56q-57 57 -57 192v996q0 133 57 190t191 57z"/>
<glyph glyph-name="afii10024" horiz-adv-x="1656" unicode="Ж" d="M1553 0h-158v532q0 26 -4 50q-3 17 -13 32q-9 14 -27 20q-15 5 -46 5h-398v-639h-157v639h-398q-56 0 -73 -23t-17 -84v-532h-158v532q0 136 56 192t192 56h154l-421 711h183l415 -711h67v711h157v-711h66l415 711h183l-421 -711h155q135 0 191 -56q57 -57 57 -192v-532z "/>
<glyph glyph-name="afii10025" horiz-adv-x="957" unicode="З" d="M718 149l-392 503q-31 39 -40 57q-11 22 -11 45q0 29 11 48q13 23 40 54l394 486v8h-665v141h703q46 0 78 -8t49 -28q18 -21 18 -55q0 -64 -66 -144l-398 -498v-8l398 -516q32 -44 49 -76t17 -66q0 -53 -35 -72q-37 -20 -110 -20h-703v140h663v9z"/>
<glyph glyph-name="afii10026" horiz-adv-x="1319" unicode="И" d="M149 162v1329h158v-1310h8l565 1219q26 56 59 82q34 26 94 26q9 0 25 -2q15 -2 35 -10q22 -9 38 -25t28 -49t12 -78v-1344h-157v1310h-8l-567 -1210q-30 -65 -61 -90q-33 -27 -88 -27q-141 0 -141 179z"/>
<glyph glyph-name="afii10027" horiz-adv-x="1319" unicode="Й" d="M620 1687h83q43 0 59 21q16 20 16 70v11h149v-11q0 -78 -24 -128q-24 -49 -73 -72t-127 -23h-83q-46 0 -84 8q-35 7 -64 25q-28 17 -44 43q-17 28 -26 63q-8 32 -8 84v11h149v-11q0 -46 17 -69q16 -22 60 -22zM149 162v1329h158v-1310h8l565 1219q26 56 59 82 q34 26 94 26q9 0 25 -2q15 -2 35 -10q22 -9 38 -25t28 -49t12 -78v-1344h-157v1310h-8l-567 -1210q-30 -65 -61 -90q-33 -27 -88 -27q-141 0 -141 179z"/>
<glyph glyph-name="afii10028" horiz-adv-x="1191" unicode="К" d="M1089 0h-158v532q0 61 -17 84t-73 23h-526v-639h-157v1491h157v-711h79l522 711h192l-525 -711h258q135 0 191 -56q57 -57 57 -192v-532z"/>
<glyph glyph-name="afii10029" horiz-adv-x="1230" unicode="Л" d="M1057 0l-437 1337h-8l-437 -1337h-175l458 1363q27 82 60 113q34 32 98 32q32 0 56 -8q23 -8 41 -27q19 -20 30 -43q13 -25 26 -67l462 -1363h-174z"/>
<glyph glyph-name="afii10030" horiz-adv-x="1413" unicode="М" d="M1266 0h-158v1321h-9l-225 -565q-36 -85 -74 -125q-40 -41 -93 -41q-51 0 -91 42q-40 41 -73 124l-228 563h-8v-1319h-158v1352q0 72 37 113q38 43 108 43q61 0 102 -41q42 -42 79 -136l228 -567h8l228 567q38 94 80 136q41 41 101 41q70 0 108 -43t38 -113v-1352z"/>
<glyph glyph-name="afii10031" horiz-adv-x="1248" unicode="Н" d="M1091 1491v-1491h-158v683h-618v-683h-157v1491h157v-666h618v666h158z"/>
<glyph glyph-name="afii10032" d="M850 1350h-462q-54 0 -72 -23t-18 -83v-996q0 -62 18 -85t72 -23h460q26 0 39 4q14 4 25 12q10 7 16 20q5 12 7 30q2 22 2 42v996q0 61 -16 83q-17 23 -71 23zM388 1491h462q134 0 190 -57q55 -56 55 -190v-996q0 -135 -57 -192q-56 -56 -190 -56h-460q-135 0 -191 56 q-57 57 -57 192v996q0 133 57 190t191 57z" unicode="О"/>
<glyph glyph-name="afii10033" horiz-adv-x="1230" unicode="П" d="M1082 0h-157v1244q0 62 -18 84t-72 22h-439q-26 0 -39 -4q-18 -5 -26 -11q-11 -7 -15 -21q-6 -18 -7 -29q-2 -22 -2 -41v-1244h-158v1244q0 133 57 190t190 57h439q134 0 191 -57q56 -56 56 -190v-1244z"/>
<glyph glyph-name="afii10034" horiz-adv-x="1166" unicode="Р" d="M837 1350h-441q-26 0 -39 -4q-18 -5 -26 -11q-11 -7 -15 -21q-6 -18 -7 -29q-2 -22 -2 -41v-507h528q55 0 73 23q17 21 17 83v401q0 61 -17 84q-16 22 -71 22zM307 0h-158v1244q0 133 57 190t190 57h441q133 0 189 -57q56 -58 56 -190v-401q0 -135 -56 -191t-191 -56 h-528v-596z"/>
<glyph glyph-name="afii10035" horiz-adv-x="937" unicode="С" d="M388 1491h506v-141h-506q-55 0 -73 -23q-17 -21 -17 -83v-996q0 -64 17 -85q18 -23 73 -23h506v-140h-506q-135 0 -191 56q-57 57 -57 192v996q0 133 57 190t191 57z"/>
<glyph glyph-name="afii10036" horiz-adv-x="1085" unicode="Т" d="M622 0h-158v1350h-464v141h1086v-141h-464v-1350z"/>
<glyph glyph-name="afii10037" horiz-adv-x="1158" unicode="У" d="M762 0h-634v140h634q56 0 73 23t17 85v414h-507q-135 0 -191 56t-56 191v582h158v-582q0 -60 17 -83t72 -23h507v688h158v-1243q0 -135 -57 -192q-56 -56 -191 -56z"/>
<glyph glyph-name="afii10038" horiz-adv-x="1707" unicode="Ф" d="M277 1118v-724q0 -61 17 -84t72 -23h409v938h-409q-55 0 -72 -23t-17 -84zM1344 1225h-411v-938h409q55 0 72 23t17 84v724q0 62 -16 84q-17 23 -71 23zM366 1366h409v125h158v-125h411q134 0 190 -57q55 -56 55 -191v-724q0 -133 -57 -190t-190 -57h-409v-147h-158v147 h-409q-134 0 -190 57q-56 58 -56 190v724q0 133 56 191q55 57 190 57z"/>
<glyph glyph-name="afii10039" horiz-adv-x="1098" unicode="Х" d="M1099 0h-187l-363 628l-362 -628h-187l456 756l-441 735h183l351 -605l352 605h183l-441 -735z"/>
<glyph glyph-name="afii10040" horiz-adv-x="1268" unicode="Ц" d="M149 1491h158v-1243q0 -62 17 -85t72 -23h529v1351h157v-1351h166v-438h-157v298h-695q-91 0 -144 25q-55 26 -78 78q-25 56 -25 145v1243z"/>
<glyph glyph-name="afii10041" horiz-adv-x="1175" unicode="Ч" d="M106 1491h158v-605q0 -61 17 -84q16 -22 73 -22h506v711h158v-1491h-158v639h-506q-135 0 -192 57q-56 56 -56 190v605z"/>
<glyph glyph-name="afii10042" horiz-adv-x="1776" unicode="Ш" d="M149 1491h158v-1243q0 -62 17 -85t72 -23h413v1351h158v-1351h413q24 0 39 4q17 5 26 11q8 6 15 21t8 30q2 22 2 42v1243h158v-1243q0 -135 -57 -192q-56 -56 -191 -56h-984q-91 0 -144 25q-55 26 -78 78q-25 56 -25 145v1243z"/>
<glyph glyph-name="afii10043" horiz-adv-x="1813" unicode="Щ" d="M149 1491h158v-1243q0 -62 17 -85t72 -23h413v1351h158v-1351h503v1351h158v-1351h165v-438h-157v298h-1240q-91 0 -144 25q-55 26 -78 78q-25 56 -25 145v1243z"/>
<glyph glyph-name="afii10044" horiz-adv-x="1426" unicode="Ъ" d="M656 140h441q54 0 71 23t17 85v378q0 62 -18 84q-18 23 -72 23h-528v-485q0 -62 17 -85t72 -23zM409 248v996q0 61 -17 84q-16 22 -73 22h-319v141h319q135 0 191 -56q57 -57 57 -191v-370h528q90 0 143 -25q54 -26 79 -78q25 -53 25 -145v-378q0 -134 -56 -192 q-55 -56 -189 -56h-441q-134 0 -190 56q-57 57 -57 192z"/>
<glyph glyph-name="afii10045" horiz-adv-x="1520" unicode="Ы" d="M396 140h419q54 0 71 23t17 85v378q0 61 -17 84t-73 23h-506v-485q0 -62 17 -85t72 -23zM149 1491h158v-617h506q134 0 191 -57t57 -191v-378q0 -89 -25 -145q-23 -52 -77 -78q-51 -25 -144 -25h-419q-91 0 -144 25q-55 26 -78 78q-25 56 -25 145v1243zM1363 0h-160v1491 h160v-1491z"/>
<glyph glyph-name="afii10046" horiz-adv-x="1166" unicode="Ь" d="M396 140h441q54 0 71 23t17 85v378q0 63 -17 84q-18 23 -73 23h-528v-485q0 -62 17 -85t72 -23zM149 1491h158v-617h528q90 0 143 -25q54 -25 79 -79q25 -53 25 -144v-378q0 -134 -56 -192q-55 -56 -189 -56h-441q-91 0 -144 25q-55 26 -78 78q-25 56 -25 145v1243z"/>
<glyph glyph-name="afii10047" horiz-adv-x="1022" unicode="Э" d="M85 1491h549q136 0 192 -56t56 -191v-996q0 -135 -56 -191q-57 -57 -192 -57h-549v140h549q56 0 73 23t17 85v435h-639v142h639v419q0 61 -17 84q-16 22 -73 22h-549v141z"/>
<glyph glyph-name="afii10048" horiz-adv-x="1575" unicode="Ю" d="M1191 1350h-441q-57 0 -73 -22q-17 -23 -17 -84v-996q0 -64 17 -85q18 -23 73 -23h439q55 0 72 23t17 85v996q0 31 -3 49q-3 19 -12 32q-8 13 -26 19q-16 6 -46 6zM750 1491h441q133 0 189 -57q55 -56 55 -190v-996q0 -134 -56 -192q-55 -56 -190 -56h-439 q-135 0 -191 56q-57 57 -57 192v435h-187v-683h-157v1491h157v-666h187v419q0 91 25 144q26 54 79 78q56 25 144 25z"/>
<glyph glyph-name="afii10049" horiz-adv-x="1183" unicode="Я" d="M788 1350h-441q-55 0 -71 -22t-16 -84v-401q0 -60 17 -83t72 -23h529v507q0 61 -17 84q-16 22 -73 22zM1035 0h-157v596h-94l-514 -596h-207l520 596h-234q-135 0 -191 56t-56 191v401q0 132 56 190q56 57 189 57h441q133 0 190 -57t57 -190v-1244z"/>
<glyph glyph-name="afii10065" horiz-adv-x="937" unicode="а" d="M691 226v274h-388q-28 0 -46 -12t-24 -31q-7 -23 -7 -50v-181q0 -46 17 -71q16 -23 60 -23h311q43 0 60 23t17 71zM77 226v181q0 118 53 171q54 54 173 54h388v207q0 48 -17 71t-60 23h-496v132h496q119 0 172 -53t53 -173v-613q0 -119 -53 -172q-54 -54 -172 -54h-311 q-119 0 -173 54q-53 53 -53 172z"/>
<glyph glyph-name="afii10066" horiz-adv-x="988" unicode="б" d="M256 933v-707q0 -48 17 -71t59 -23h333q43 0 60 23t17 71v613q0 47 -17 70q-18 24 -60 24h-409zM665 0h-333q-119 0 -172 53q-54 54 -54 173v1040q0 117 54 171t172 54h499v-132h-499q-42 0 -59 -23t-17 -70v-201h409q119 0 172 -53t53 -173v-613q0 -120 -53 -173 t-172 -53z"/>
<glyph glyph-name="afii10067" horiz-adv-x="945" unicode="в" d="M248 839v-209h386q44 0 60 24q17 25 17 70v115q0 46 -17 71q-16 23 -60 23h-311q-42 0 -59 -23q-16 -22 -16 -71zM248 226q0 -49 16 -71q17 -23 59 -23h311q44 0 60 24q17 25 17 70v179q0 46 -17 69q-18 24 -60 24h-386v-272zM860 405v-179q0 -118 -54 -172t-172 -54 h-311q-118 0 -172 54q-53 53 -53 172v613q0 120 53 173t172 53h311q119 0 172 -53q54 -54 54 -173v-115q0 -62 -16 -98q-17 -38 -56 -61q39 -24 56 -62q16 -36 16 -98z"/>
<glyph glyph-name="afii10068" horiz-adv-x="681" unicode="г" d="M256 0h-150v839q0 119 54 173q53 53 172 53h349v-132h-349q-43 0 -60 -23q-16 -22 -16 -71v-839z"/>
<glyph glyph-name="afii10069" horiz-adv-x="1191" unicode="д" d="M592 903l-283 -771h575l-283 771h-9zM1022 0h-851v-298h-150v430h128l320 848q37 97 127 97q91 0 128 -97l320 -848h127v-430h-149v298z"/>
<glyph glyph-name="afii10070" horiz-adv-x="937" unicode="е" d="M248 839v-253h386q43 0 60 23t17 70v160q0 46 -17 71q-16 23 -60 23h-311q-42 0 -59 -23q-16 -22 -16 -71zM860 839v-160q0 -118 -54 -172t-172 -54h-386v-227q0 -49 16 -71q17 -23 59 -23h506v-132h-506q-118 0 -172 54q-53 53 -53 172v613q0 120 53 173t172 53h311 q119 0 172 -53q54 -54 54 -173z"/>
<glyph glyph-name="afii10072" horiz-adv-x="1435" unicode="ж" d="M1128 492h-336v-492h-149v492h-336q-43 0 -60 -24q-17 -25 -17 -70v-398h-149v398q0 119 53 172q54 54 173 54h119l-363 441h189l360 -441h31v441h149v-441h33l360 441h187l-362 -441h118q119 0 173 -54t54 -172v-398h-150v398q0 28 -7 51q-6 19 -24 31t-46 12z"/>
<glyph glyph-name="afii10073" horiz-adv-x="787" unicode="з" d="M607 0h-552v132h501v8l-273 346q-38 47 -38 81q0 36 38 79l266 279v8h-494v132h552q30 0 51 -3q18 -3 38 -11q19 -8 28 -25q9 -16 9 -42q0 -35 -19 -70q-19 -34 -54 -71l-258 -272v-8l263 -341q68 -91 68 -143q0 -17 -7 -34q-6 -14 -16 -23q-11 -9 -28 -14q-16 -4 -34 -6 q-22 -2 -41 -2z"/>
<glyph glyph-name="afii10074" horiz-adv-x="1012" unicode="и" d="M907 0h-149v869h-8l-394 -794q-44 -87 -134 -87q-51 0 -84 33q-32 32 -32 94v950h150v-874h8l403 813q37 73 125 73q49 0 82 -33t33 -94v-950z"/>
<glyph glyph-name="afii10075" horiz-adv-x="1012" unicode="й" d="M469 1297h76q29 0 46 12q16 12 24 35q7 21 7 62h140q0 -68 -11 -108q-12 -44 -39 -72t-66 -40q-44 -13 -101 -13h-76q-121 0 -169 53q-48 52 -48 180h140q0 -58 17 -84q16 -25 60 -25zM907 0h-149v869h-8l-394 -794q-44 -87 -134 -87q-51 0 -84 33q-32 32 -32 94v950h150 v-874h8l403 813q37 73 125 73q49 0 82 -33t33 -94v-950z"/>
<glyph glyph-name="afii10076" horiz-adv-x="949" unicode="к" d="M643 492h-379v-492h-149v1065h149v-441h49l386 441h187l-388 -441h145q79 0 129 -24q51 -25 74 -72t23 -130v-398h-149v398q0 46 -18 70t-59 24z"/>
<glyph glyph-name="afii10077" horiz-adv-x="962" unicode="л" d="M0 0l354 980q11 29 25 47q16 21 27 29q15 11 29 15q18 5 26 5q3 0 9.5 0.5t11.5 0.5q4 0 11 -0.5t9 -0.5q7 0 25 -5q14 -4 29 -15q13 -10 28 -29q14 -18 25 -47l354 -980h-162l-315 903h-9l-315 -903h-162z"/>
<glyph glyph-name="afii10078" horiz-adv-x="1154" unicode="м" d="M1048 0h-149v888h-9l-197 -432q-19 -43 -50 -66q-29 -22 -66 -22q-72 0 -115 88l-198 430h-8v-886h-150v947q0 64 34 97t96 33q53 0 82 -23q31 -25 56 -81l199 -426h8l197 426q25 55 58 80q32 24 82 24q62 0 96 -33t34 -97v-947z"/>
<glyph glyph-name="afii10079" horiz-adv-x="990" unicode="н" d="M876 0h-150v486h-462v-486h-149v1065h149v-447h462v447h150v-1065z"/>
<glyph glyph-name="afii10080" horiz-adv-x="979" unicode="о" d="M656 933h-333q-42 0 -59 -23q-16 -22 -16 -71v-613q0 -49 16 -71q17 -23 59 -23h333q44 0 60 24q17 25 17 70v613q0 46 -17 71q-16 23 -60 23zM98 226v613q0 119 54 173q53 53 171 53h333q120 0 173 -53t53 -173v-613q0 -119 -53 -172q-54 -54 -173 -54h-333 q-117 0 -171 54t-54 172z"/>
<glyph glyph-name="afii10081" horiz-adv-x="974" unicode="п" d="M643 933h-311q-43 0 -60 -23q-16 -22 -16 -71v-839h-150v839q0 119 54 173q53 53 172 53h311q82 0 129 -23q50 -24 74 -74q23 -47 23 -129v-839h-149v839q0 47 -18 71q-17 23 -59 23z"/>
<glyph glyph-name="afii10082" horiz-adv-x="992" unicode="р" d="M665 933h-333q-42 0 -59 -23t-17 -71v-707h409q42 0 60 24q17 23 17 70v613q0 48 -17 71t-60 23zM256 -426h-150v1265q0 119 54 173q53 53 172 53h333q119 0 172 -53t53 -173v-613q0 -119 -53 -172q-54 -54 -172 -54h-409v-426z"/>
<glyph glyph-name="afii10083" horiz-adv-x="744" unicode="с" d="M98 226v613q0 119 54 173q53 53 171 53h380v-132h-380q-41 0 -58 -23t-17 -71v-613q0 -48 17 -71t58 -23h380v-132h-380q-117 0 -171 54t-54 172z"/>
<glyph glyph-name="afii10084" horiz-adv-x="851" unicode="т" d="M500 0h-148v933h-352v132h852v-132h-352v-933z"/>
<glyph glyph-name="afii10085" horiz-adv-x="974" unicode="у" d="M869 1065v-1266q0 -117 -54 -171t-172 -54h-503v132h503q41 0 59 23t18 70v201h-388q-118 0 -172 54t-54 172v839h150v-839q0 -49 16 -71q17 -23 60 -23h388v933h149z"/>
<glyph glyph-name="afii10086" horiz-adv-x="1345" unicode="ф" d="M248 226q0 -49 16 -71q17 -23 59 -23h275v801h-275q-42 0 -59 -23q-16 -22 -16 -71v-613zM1022 933h-274v-801h274q44 0 60 24q17 25 17 70v613q0 28 -7 51q-6 20 -24 32q-16 11 -46 11zM98 226v613q0 119 54 173q53 53 171 53h275v426h150v-426h274q120 0 173 -53 t53 -173v-613q0 -119 -53 -172q-54 -54 -173 -54h-274v-426h-150v426h-275q-117 0 -171 54t-54 172z"/>
<glyph glyph-name="afii10087" horiz-adv-x="868" unicode="х" d="M869 0h-174l-260 433l-260 -433h-175l354 547l-337 518h170l248 -400l246 400h171l-334 -518z"/>
<glyph glyph-name="afii10088" horiz-adv-x="1043" unicode="ц" d="M332 132h388v933h149v-933h153v-430h-148v298h-542q-118 0 -172 54t-54 172v839h150v-839q0 -49 16 -71q17 -23 60 -23z"/>
<glyph glyph-name="afii10089" horiz-adv-x="937" unicode="ч" d="M305 573h364v492h148v-1065h-148v441h-364q-118 0 -173 53q-53 52 -53 171v400h149v-400q0 -47 17 -70q16 -22 60 -22z"/>
<glyph glyph-name="afii10090" horiz-adv-x="1502" unicode="ш" d="M332 132h345v933h150v-933h344q43 0 60 24q17 25 17 70v839h149v-839q0 -119 -53 -172q-54 -54 -173 -54h-839q-118 0 -172 54t-54 172v839h150v-839q0 -49 16 -71q17 -23 60 -23z"/>
<glyph glyph-name="afii10091" horiz-adv-x="1571" unicode="щ" d="M1402 0h-1070q-118 0 -172 54t-54 172v839h150v-839q0 -49 16 -71q17 -23 60 -23h345v933h150v-933h421v933h149v-933h154v-430h-149v298z"/>
<glyph glyph-name="afii10092" horiz-adv-x="1115" unicode="ъ" d="M426 498v-272q0 -48 17 -71t59 -23h311q43 0 60 24q17 25 17 70v179q0 47 -17 70t-60 23h-387zM277 226v613q0 48 -17 71t-59 23h-201v132h201q118 0 171 -53q54 -54 54 -173v-209h387q120 0 173 -53t53 -172v-179q0 -119 -53 -172q-54 -54 -173 -54h-311q-118 0 -172 54 q-53 53 -53 172z"/>
<glyph glyph-name="afii10093" horiz-adv-x="1209" unicode="ы" d="M332 132h290q42 0 60 24q17 23 17 70v179q0 49 -17 70q-18 23 -60 23h-366v-272q0 -49 16 -71q17 -23 60 -23zM106 1065h150v-435h366q119 0 172 -53q54 -54 54 -172v-179q0 -118 -54 -172t-172 -54h-290q-118 0 -172 54t-54 172v839zM945 0v1065h150v-1065h-150z"/>
<glyph glyph-name="afii10094" horiz-adv-x="945" unicode="ь" d="M332 132h311q41 0 59 24t18 70v179q0 47 -18 70t-59 23h-387v-272q0 -49 16 -71q17 -23 60 -23zM106 1065h150v-435h387q119 0 172 -53q54 -54 54 -172v-179q0 -118 -54 -172t-172 -54h-311q-118 0 -172 54t-54 172v839z"/>
<glyph glyph-name="afii10095" horiz-adv-x="876" unicode="э" d="M630 226v260h-553v132h553v221q0 46 -17 71q-16 23 -60 23h-476v132h476q82 0 129 -23q50 -24 74 -74t24 -129v-613q0 -118 -54 -172t-173 -54h-476v132h476q43 0 60 24q17 25 17 70z"/>
<glyph glyph-name="afii10096" horiz-adv-x="1277" unicode="ю" d="M955 933h-312q-42 0 -59 -23t-17 -71v-613q0 -48 17 -71t59 -23h312q42 0 59 23t17 71v613q0 48 -17 71t-59 23zM417 226v260h-153v-486h-149v1065h149v-447h153v221q0 120 53 173t173 53h312q119 0 172 -53t53 -173v-613q0 -119 -53 -172q-54 -54 -172 -54h-312 q-119 0 -173 54q-53 53 -53 172z"/>
<glyph glyph-name="afii10097" horiz-adv-x="953" unicode="я" d="M622 933h-311q-31 0 -47 -11q-18 -12 -24 -32t-6 -51v-187q0 -45 17 -70q17 -24 60 -24h388v281q0 48 -17 71t-60 23zM848 0h-149v426h-83l-382 -426h-191l379 426h-111q-119 0 -173 54q-53 53 -53 172v187q0 120 53 173t173 53h311q119 0 172 -53q54 -54 54 -173v-839z "/>
<glyph glyph-name="afii10071" horiz-adv-x="937" unicode="ё" d="M530 1395q0 40 28 68t68 28t68 -28t28 -68t-28 -68t-68 -28t-68 28t-28 68zM215 1395q0 40 28 68t68 28q26 0 48 -13t35 -35t13 -48q0 -40 -28 -68t-68 -28t-68 28t-28 68zM248 839v-253h386q43 0 60 23t17 70v160q0 46 -17 71q-16 23 -60 23h-311q-42 0 -59 -23 q-16 -22 -16 -71zM860 839v-160q0 -118 -54 -172t-172 -54h-386v-227q0 -49 16 -71q17 -23 59 -23h506v-132h-506q-118 0 -172 54q-53 53 -53 172v613q0 120 53 173t172 53h311q119 0 172 -53q54 -54 54 -173z"/>
<glyph glyph-name="afii10099" horiz-adv-x="1012" unicode="ђ" d="M758 -201v606q0 47 -17 70t-60 23h-366v-498h-149v933h-166v132h166v426h149v-426h443v-132h-443v-303h366q120 0 173 -53t53 -172v-606q0 -118 -53 -171q-54 -54 -173 -54h-179v132h179q22 0 37 6t24 18t12 30q4 22 4 39z"/>
<glyph glyph-name="afii10100" horiz-adv-x="681" unicode="ѓ" d="M431 1508l112 -77l-204 -303l-115 77zM256 0h-150v839q0 119 54 173q53 53 172 53h349v-132h-349q-43 0 -60 -23q-16 -22 -16 -71v-839z"/>
<glyph glyph-name="afii10101" horiz-adv-x="855" unicode="є" d="M386 833l-130 -215h524v-132h-524l130 -256q15 -27 17 -31q9 -15 18 -26q12 -15 23 -22q12 -7 26 -13q15 -6 34 -6h276v-132h-276q-47 0 -84 8q-35 8 -64 26t-51 46q-23 29 -45 73l-142 278q-6 9 -11 19q-9 18 -11 24q-4 11 -9 23q-7 15 -8 27q-2 18 -2 27q0 44 41 120 l142 241q32 56 64 91q28 31 72 47q42 15 108 15h276v-132h-276q-18 0 -37 -8q-15 -6 -34 -27q-17 -18 -24 -30q-2 -3 -9.5 -14.5t-13.5 -20.5z"/>
<glyph glyph-name="afii10102" horiz-adv-x="851" unicode="ѕ" d="M775 382v-156q0 -119 -53 -172q-54 -54 -173 -54h-441v132h441q43 0 60 24q17 25 17 70v156q0 47 -17 70t-60 23h-246q-119 0 -173 54q-53 53 -53 172v138q0 120 53 173t173 53h441v-132h-441q-31 0 -47 -11q-18 -12 -24 -32t-6 -51v-138q0 -45 17 -70q17 -24 60 -24h246 q120 0 173 -53t53 -172z"/>
<glyph glyph-name="afii10103" horiz-adv-x="378" unicode="і" d="M94 1394q0 43 27 70t68 27q25 0 49 -13q22 -12 34 -34q13 -24 13 -49q0 -42 -27 -69t-68 -27q-42 0 -69 27t-27 68zM115 0v1065h149v-1065h-149z"/>
<glyph glyph-name="afii10104" horiz-adv-x="378" unicode="ї" d="M230 1395q0 40 28 68t68 28q39 0 68 -29q28 -28 28 -68q0 -39 -28 -67t-68 -28t-68 28t-28 68zM-43 1395q0 40 28 68t68 28t68 -28t28 -68t-28 -68t-68 -28t-68 28t-28 68zM115 0v1065h149v-1065h-149z"/>
<glyph glyph-name="afii10105" horiz-adv-x="433" unicode="ј" d="M149 1395q0 41 28 69q27 27 69 27q41 0 68 -27t27 -70q0 -41 -27 -68t-69 -27q-21 0 -38 7q-19 8 -30 20q-13 15 -20 31q-8 19 -8 38zM171 1065h148v-1266q0 -118 -53 -171q-54 -54 -172 -54h-222v132h222q42 0 60 23q17 21 17 70v1266z"/>
<glyph glyph-name="afii10106" horiz-adv-x="1486" unicode="љ" d="M894 132h291q42 0 59 23q16 22 16 71v179q0 48 -16 70q-17 23 -59 23h-368v-272q0 -47 17 -70q18 -24 60 -24zM817 945v-315h368q119 0 172 -53t53 -172v-179q0 -119 -53 -172q-54 -54 -172 -54h-291q-118 0 -172 54q-53 53 -53 172v683h-9l-509 -909h-172l535 943 q44 80 86 107t88 27q75 0 102 -31q27 -32 27 -101z"/>
<glyph glyph-name="afii10107" horiz-adv-x="1522" unicode="њ" d="M931 132h290q29 0 46 12q18 13 23 30q7 23 7 52v174q0 48 -17 71t-59 23h-367v-268q0 -45 17 -70q17 -24 60 -24zM705 1065h149v-439h367q119 0 173 -54q53 -53 53 -172v-174q0 -119 -53 -172q-54 -54 -173 -54h-290q-120 0 -173 52t-53 172v270h-441v-494h-149v1065h149 v-439h441v439z"/>
<glyph glyph-name="afii10108" horiz-adv-x="1012" unicode="ћ" d="M166 1491h149v-426h443v-132h-443v-303h366q120 0 173 -53t53 -172v-405h-149v405q0 47 -17 70t-60 23h-366v-498h-149v933h-166v132h166v426z"/>
<glyph glyph-name="afii10109" horiz-adv-x="949" unicode="ќ" d="M522 1508l112 -77l-203 -303l-116 77zM643 492h-379v-492h-149v1065h149v-441h49l386 441h187l-388 -441h145q79 0 129 -24q51 -25 74 -72t23 -130v-398h-149v398q0 46 -18 70t-59 24z"/>
<glyph glyph-name="afii10110" horiz-adv-x="974" unicode="ў" d="M445 1297h77q20 0 37 7q13 5 23 20q9 13 12 34q4 26 4 48h141q0 -128 -49 -180q-50 -53 -168 -53h-77q-121 0 -169 53q-48 52 -48 180h140q0 -57 17 -83t60 -26zM869 1065v-1266q0 -117 -54 -171t-172 -54h-503v132h503q41 0 59 23t18 70v201h-388q-118 0 -172 54 t-54 172v839h150v-839q0 -49 16 -71q17 -23 60 -23h388v933h149z"/>
<glyph glyph-name="afii10193" horiz-adv-x="974" unicode="џ" d="M332 132h311q41 0 59 24t18 70v839h149v-839q0 -118 -54 -172t-172 -54h-80v-290h-150v290h-81q-118 0 -172 54t-54 172v839h150v-839q0 -49 16 -71q17 -23 60 -23z"/>
<glyph glyph-name="afii10050" horiz-adv-x="937" unicode="Ґ" d="M691 1350h-295q-26 0 -39 -4q-18 -5 -26 -11q-11 -7 -15 -21q-6 -18 -7 -29q-2 -22 -2 -41v-1244h-158v1244q0 133 57 190t190 57h295q55 0 72 23t17 83v192h157v-192q0 -133 -56 -191q-55 -56 -190 -56z"/>
<glyph glyph-name="afii10098" horiz-adv-x="681" unicode="ґ" d="M532 1363h149v-204q0 -120 -53 -173t-172 -53h-124q-43 0 -60 -23q-16 -22 -16 -71v-839h-150v839q0 119 54 173q53 53 172 53h124q42 0 59 23t17 71v204z"/>
<glyph glyph-name="uni2002" horiz-adv-x="958" unicode=" "/>
<glyph glyph-name="uni2003" horiz-adv-x="1917" unicode=" "/>
<glyph glyph-name="uni2009" horiz-adv-x="383" unicode=" "/>
<glyph glyph-name="endash" horiz-adv-x="1064" unicode="–" d="M106 520v132h853v-132h-853z"/>
<glyph glyph-name="emdash" horiz-adv-x="1575" unicode="—" d="M106 520v132h1364v-132h-1364z"/>
<glyph glyph-name="quoteleft" horiz-adv-x="518" unicode="‘" d="M435 1152l-132 -79l-218 364l134 75z"/>
<glyph glyph-name="quotesinglbase" horiz-adv-x="476" unicode="‚" d="M196 -205l-133 79l216 360l134 -74z"/>
<glyph glyph-name="quotedblleft" horiz-adv-x="817" unicode="“" d="M435 1152l-132 -79l-218 364l134 75zM733 1152l-132 -79l-217 364l134 75z"/>
<glyph glyph-name="quotedblright" horiz-adv-x="817" unicode="”" d="M516 1073l-132 79l214 360l135 -75zM217 1073l-132 79l216 360l134 -75z"/>
<glyph glyph-name="ellipsis" horiz-adv-x="1136" unicode="…" d="M831 88q0 41 29 70t70 29t72 -29q29 -28 29 -70q0 -43 -29 -71q-31 -29 -72 -29t-70 29t-29 71zM469 88q0 42 29 70q31 29 71 29t71 -29q29 -28 29 -70q0 -43 -29 -71q-31 -29 -71 -29t-71 29q-29 28 -29 71zM106 88q0 42 30 70q31 29 71 29t71 -29q29 -28 29 -70 q0 -43 -29 -71q-31 -29 -71 -29t-71 29q-30 29 -30 71z"/>
<glyph glyph-name="guilsinglleft" horiz-adv-x="638" unicode="‹" d="M553 984l-297 -407l297 -411l-116 -81l-352 492l352 488z"/>
<glyph glyph-name="guilsinglright" horiz-adv-x="638" unicode="›" d="M85 166l299 407l-299 411l118 81l350 -492l-350 -488z"/>
<glyph glyph-name="Euro" d="M502 1491h563v-141h-563q-55 0 -72 -23t-17 -83v-285h456v-132h-456v-175h456v-132h-456v-272q0 -62 17 -85t72 -23h563v-140h-563q-135 0 -190 56q-56 58 -56 192v272h-150v132h150v175h-150v132h150v285q0 132 56 190q55 57 190 57z" unicode="€"/>
<glyph glyph-name="trademark" horiz-adv-x="1737" unicode="™" d="M1567 639h-136v703h-8l-100 -309q-26 -83 -118 -83q-93 0 -119 83l-100 309h-8v-703h-137v747q0 32 9 54q10 25 20 35q12 11 31 18q25 8 32 9q18 2 32 2t34 -4q17 -3 36 -13q22 -11 39 -35q19 -27 32 -64l95 -293h9l93 293q10 29 24 53q12 20 28 34q14 12 31 18 q25 8 30 9q16 2 29 2q11 0 31 -2q9 -1 33 -9q17 -5 29 -18q10 -10 20 -35q9 -22 9 -54v-747zM512 639h-138v729h-246v123h630v-123h-246v-729z"/>
</font>
</defs>
</svg>
