<?xml version="1.0" encoding="UTF-8" standalone="no"?>
<!DOCTYPE svg  PUBLIC '-//W3C//DTD SVG 1.1//EN'  'http://www.w3.org/Graphics/SVG/1.1/DTD/svg11.dtd'>
<svg xmlns="http://www.w3.org/2000/svg">
<defs>
<font id="Sochi2014-Medium" horiz-adv-x="1234">
<font-face underline-position="-102" font-weight="500" descent="-410" panose-1="2 11 7 4 3 2 4 8 3 4" units-per-em="2048" unicode-range="U+000D-2122" bbox="-128 -512 1977.04 2020" x-height="1065" underline-thickness="102" font-family="Sochi2014" ascent="1638" cap-height="1491"/>
<missing-glyph horiz-adv-x="2048"/>
<glyph glyph-name=".notdef" horiz-adv-x="2048"/>
<glyph glyph-name="glyph1" horiz-adv-x="2048"/>
<glyph glyph-name="glyph1" horiz-adv-x="2048"/>
<glyph glyph-name="uni000D" horiz-adv-x="2048" unicode=""/>
<glyph glyph-name="space" horiz-adv-x="496" unicode=" "/>
<glyph glyph-name="exclam" horiz-adv-x="540" unicode="!" d="M120 138q0 64 44 108t106 44q64 0 108 -44t44 -108t-44 -107t-108 -43t-107 43t-43 107zM405 390h-269v1101h269v-1101z"/>
<glyph glyph-name="quotedbl" horiz-adv-x="685" unicode='&quot;' d="M400 1093v398h201v-398h-201zM85 1093v398h200v-398h-200z"/>
<glyph glyph-name="numbersign" d="M669 561l89 396h-195l-90 -396h196zM138 0l86 372h-203l40 189h203l90 396h-203l45 187h202l77 347h208l-76 -347h196l77 347h209l-77 -347h202l-45 -187h-202l-89 -396h202l-41 -189h-202l-85 -372h-201l77 372h-195l-86 -372h-209z" unicode="#"/>
<glyph glyph-name="dollar" d="M396 1193v-256q0 -63 64 -63h62v382h-62q-64 0 -64 -63zM775 639h-62v-405h62q64 0 64 64v277q0 64 -64 64zM874 0h-161v-213h-191v213h-373v234h373v405h-160q-128 -1 -181 53t-53 182v382q0 128 53 182t181 53h160v213h191v-213h373v-235h-373v-382h161q126 0 180 -54 t54 -181v-405q0 -128 -53 -181t-181 -53z" unicode="$"/>
<glyph glyph-name="percent" horiz-adv-x="1644" unicode="%" d="M1291 494h-90q-22 0 -32 -10t-10 -33v-221q0 -23 10 -33t32 -10h90q22 0 32 10t10 33v221q-1 12 -3 20t-7 13q-5 6 -13 8t-19 2zM955 213v256q0 112 50 162t162 50h158q113 -1 163 -51t50 -161v-256q0 -111 -51 -162t-162 -51h-158q-75 0 -121 22t-69 70q-22 46 -22 121z M443 1303h-89q-23 0 -33 -10t-10 -33v-221q0 -23 10 -33t33 -10h89q23 0 33 10t10 33v221q0 23 -10 33t-33 10zM106 1022v256q0 112 51 162t162 51h158q112 -1 163 -51t51 -162v-256q-1 -74 -23 -121t-69 -69t-122 -23h-158q-111 0 -162 51t-51 162zM384 0l677 1491h199 l-677 -1491h-199z"/>
<glyph glyph-name="ampersand" horiz-adv-x="1277" unicode="&amp;" d="M451 234h291q63 0 63 64v341h-352q-65 0 -65 -64v-277q0 -64 63 -64zM388 1193v-256q0 -63 65 -63h803v-235h-183v-405q0 -128 -53 -181t-181 -53h-485q-128 0 -181 53t-53 181v319q0 89 30 137t90 66q-60 18 -90 66t-30 137v297q0 128 53 182t181 53h719v-235h-622 q-63 0 -63 -63z"/>
<glyph glyph-name="quotesingle" horiz-adv-x="425" unicode="&apos;" d="M106 1093v398h213v-398h-213z"/>
<glyph glyph-name="parenleft" horiz-adv-x="723" unicode="(" d="M268 1278l171 213h242l-297 -383q-17 -23 -24 -33q-7 -9 -13 -29t-6 -44v-939q0 -23 6 -43t13 -30t24 -33l297 -383h-242l-171 213q-8 11 -32 39t-30 38q-8 10 -26 35t-22 41q-6 16 -15 44q-9 26 -12 56t-3 66v853q0 31 3 59t7 48t14 44q10 22 16 36q8 14 22 34t22 30 t28 34q19 23 28 34z"/>
<glyph glyph-name="parenright" horiz-adv-x="723" unicode=")" d="M456 -213l-171 -213h-242l298 383q17 23 23 33t14 30q6 20 6 43v939q0 24 -6 44t-14 29q-6 10 -23 33l-298 383h242l171 -213q8 -10 32 -38t30 -39q8 -10 25 -35q17 -26 23 -42t15 -43t12 -57t3 -65v-853q0 -36 -3 -66t-12 -56q-9 -28 -15 -44t-23 -41t-25 -35t-30 -38 q-24 -28 -32 -39z"/>
<glyph glyph-name="asterisk" horiz-adv-x="1081" unicode="*" d="M419 526v322l-274 -163l-94 163l275 160l-275 161l94 160l274 -160v322h188v-322l277 160l94 -160l-277 -161l277 -160l-94 -163l-277 163v-322h-188z"/>
<glyph glyph-name="plus" d="M718 191h-200v376h-369v187h369v374h200v-374h368v-187h-368v-376z" unicode="+"/>
<glyph glyph-name="comma" horiz-adv-x="518" unicode="," d="M196 -213l-196 113l238 398l197 -111z"/>
<glyph glyph-name="hyphen" horiz-adv-x="809" unicode="-" d="M85 482v234h639v-234h-639z"/>
<glyph glyph-name="period" horiz-adv-x="472" unicode="." d="M85 138q-1 64 43 108t108 44t108 -44t44 -108t-44 -107t-108 -43t-108 43t-43 107z"/>
<glyph glyph-name="slash" horiz-adv-x="996" unicode="/" d="M191 -512h-212l826 2089h213z"/>
<glyph glyph-name="zero" d="M775 1256h-315q-64 0 -64 -63v-895q0 -64 64 -64h315q64 0 64 64v895q0 63 -64 63zM362 1491h512q126 1 180 -53t54 -182v-1022q0 -128 -53 -181t-181 -53h-512q-128 0 -181 53t-53 181v1022q0 128 53 182t181 53z" unicode="0"/>
<glyph glyph-name="one" d="M128 1491h390q128 1 181 -53t53 -182v-1022h356v-234h-980v234h356v959q0 63 -65 63h-291v235z" unicode="1"/>
<glyph glyph-name="two" d="M149 1491h725q126 1 180 -53t54 -182v-382q0 -128 -54 -182t-180 -53h-414q-64 0 -64 -64v-341h690v-234h-958v639q0 127 53 181t181 54h413q64 0 64 63v256q0 63 -64 63h-626v235z" unicode="2"/>
<glyph glyph-name="three" d="M874 0h-746v234h647q64 0 64 64v277q0 64 -64 64h-370q-54 0 -90 9t-54 27q-19 18 -25 38t-6 47q0 82 81 134l512 354v8h-695v235h779q41 -1 75 -11t56 -28q23 -18 39 -44q15 -24 23 -51t8 -56q0 -77 -34 -127t-113 -105l-270 -187v-8h183q126 0 180 -54t54 -181v-405 q0 -128 -53 -181t-181 -53z" unicode="3"/>
<glyph glyph-name="four" d="M1108 0h-269v628h-477q-128 0 -181 53t-53 181v629h268v-564q0 -65 64 -65h379v629h269v-1491z" unicode="4"/>
<glyph glyph-name="five" d="M874 0h-746v234h647q64 0 64 64v277q0 64 -64 64h-413q-128 -1 -181 53t-53 182v617h958v-235h-690v-319q0 -63 64 -63h414q126 0 180 -54t54 -181v-405q0 -128 -53 -181t-181 -53z" unicode="5"/>
<glyph glyph-name="six" d="M396 639v-341q0 -64 64 -64h315q64 0 64 64v277q0 64 -64 64h-379zM874 0h-512q-128 0 -181 53t-53 181v1022q0 128 53 182t181 53h703v-235h-605q-64 0 -64 -63v-319h478q126 0 180 -54t54 -181v-405q0 -128 -53 -181t-181 -53z" unicode="6"/>
<glyph glyph-name="seven" d="M160 0l657 1248v8h-711v235h844h34q12 -1 34 -3t34 -6t30 -12q16 -8 25 -21t15 -31t6 -42q0 -68 -61 -183l-605 -1193h-302z" unicode="7"/>
<glyph glyph-name="eight" d="M396 1193v-256q0 -63 66 -63h311q66 0 66 63v256q0 63 -64 63h-315q-64 0 -64 -63zM460 234h315q64 0 64 64v277q0 64 -66 64h-311q-66 0 -66 -64v-277q0 -64 64 -64zM874 0h-512q-128 0 -181 53t-53 181v319q0 89 31 137t91 66q-30 8 -52 24t-37 40q-17 24 -25 58t-8 81 v297q0 128 53 182t181 53h512q126 1 180 -53t54 -182v-297q0 -89 -32 -137t-90 -66q39 -12 65 -36q25 -24 41 -65q16 -42 16 -102v-319q0 -128 -53 -181t-181 -53z" unicode="8"/>
<glyph glyph-name="nine" d="M839 852v341q0 63 -64 63h-315q-64 0 -64 -63v-277q0 -64 64 -64h379zM362 1491h512q126 1 180 -53t54 -182v-1022q0 -128 -53 -181t-181 -53h-703v234h604q64 0 64 64v320h-477q-128 0 -181 53t-53 181v404q0 128 53 182t181 53z" unicode="9"/>
<glyph glyph-name="colon" horiz-adv-x="472" unicode=":" d="M85 927q-1 64 43 107t108 43q64 1 108 -43t44 -107q0 -42 -20 -77t-55 -55t-77 -20q-64 0 -108 44t-43 108zM85 138q-1 64 43 108t108 44t108 -44t44 -108t-44 -107t-108 -43t-108 43t-43 107z"/>
<glyph glyph-name="semicolon" horiz-adv-x="518" unicode=";" d="M120 927q0 64 43 107t107 43q64 1 108 -43t44 -108t-44 -107q-44 -44 -108 -44q-31 -1 -59 11t-48 32q-19 20 -31 49q-12 28 -12 60zM196 -213l-196 113l238 398l197 -111z"/>
<glyph glyph-name="less" d="M1065 160l-894 389v217l894 395v-218l-703 -283l703 -284v-216z" unicode="&lt;"/>
<glyph glyph-name="equal" d="M1086 742h-937v187h937v-187zM1086 366h-937v187h937v-187z" unicode="="/>
<glyph glyph-name="greater" d="M171 1161l894 -390v-218l-894 -393v216l703 284l-703 283v218z" unicode="&gt;"/>
<glyph glyph-name="question" horiz-adv-x="974" unicode="?" d="M21 1491h635q86 1 137 -23t74 -74t23 -138v-382q0 -128 -53 -182t-181 -53h-111q-63 0 -63 -64v-185h-269v249q0 127 53 181t181 54h111q64 0 64 63v256q0 63 -64 63h-537v235zM196 138q0 42 20 77t54 55t77 20q63 0 107 -44t44 -108t-44 -107t-107 -43t-107 43t-44 107z "/>
<glyph glyph-name="at" horiz-adv-x="2071" unicode="@" d="M1159 852h-290q-15 0 -24 -4t-13 -14t-5 -25v-553q0 -23 10 -33t32 -10h290q22 0 32 10t10 33v553q-1 15 -5 25t-13 14t-24 4zM1491 213h123q23 0 33 10t10 33v980q0 22 -10 32t-33 10h-1197q-23 0 -33 -10t-10 -32v-1404q0 -23 10 -33t33 -10h912v-213h-988 q-111 0 -162 50t-51 163v1489q0 112 51 162t162 51h1350q113 -1 163 -51t50 -162v-1065q0 -111 -50 -162t-163 -51h-191q-44 0 -74 7t-50 22t-29 29q-10 14 -22 36q-12 -22 -22 -36q-9 -14 -29 -29t-50 -22t-74 -7h-358q-111 0 -162 51t-51 162v639q0 111 51 162t162 51h444 q111 0 162 -51t51 -162v-604q3 -35 42 -35z"/>
<glyph glyph-name="A" horiz-adv-x="1323" unicode="A" d="M843 624l-178 581h-9l-177 -581h364zM0 0l426 1307q37 113 92 156t144 43q60 0 102 -18t78 -62q35 -44 59 -119l424 -1307h-292l-119 390h-505l-117 -390h-292z"/>
<glyph glyph-name="B" horiz-adv-x="1298" unicode="B" d="M396 1193v-319h454q66 0 66 63v256q0 63 -64 63h-392q-64 0 -64 -63zM460 234h392q64 0 64 64v277q0 64 -66 64h-454v-341q0 -64 64 -64zM950 0h-588q-128 0 -181 53t-53 181v1022q0 128 53 182t181 53h588q127 1 181 -53t54 -182v-297q1 -89 -31 -137t-91 -66 q39 -12 65 -36t42 -65q16 -42 15 -102v-319q1 -128 -53 -181t-182 -53z"/>
<glyph glyph-name="C" horiz-adv-x="979" unicode="C" d="M362 1491h575v-235h-477q-64 0 -64 -63v-895q0 -64 64 -64h477v-234h-575q-128 0 -181 53t-53 181v1022q0 128 53 182t181 53z"/>
<glyph glyph-name="D" horiz-adv-x="1328" unicode="D" d="M869 1256h-452v-1022h452q64 0 64 64v895q0 63 -64 63zM149 1491h818q86 0 137 -24q51 -25 74 -75t23 -136v-1022q0 -128 -53 -181t-181 -53h-818v1491z"/>
<glyph glyph-name="E" horiz-adv-x="1085" unicode="E" d="M362 1491h640v-235h-542q-64 0 -64 -63v-319h606v-235h-606v-341q0 -64 64 -64h542v-234h-640q-128 0 -181 53t-53 181v1022q0 128 53 182t181 53z"/>
<glyph glyph-name="F" horiz-adv-x="1008" unicode="F" d="M370 1491h597v-235h-498q-64 0 -64 -63v-319h562v-235h-562v-639h-269v1256q0 128 53 182t181 53z"/>
<glyph glyph-name="G" horiz-adv-x="1290" unicode="G" d="M950 0h-588q-128 0 -181 53t-53 181v1022q0 128 53 182t181 53h801v-235h-703q-64 0 -64 -63v-895q0 -64 64 -64h392q64 0 64 64v341h-256v235h525v-640q1 -128 -53 -181t-182 -53z"/>
<glyph glyph-name="H" horiz-adv-x="1333" unicode="H" d="M1185 1491v-1491h-269v639h-499v-639h-268v1491h268v-617h499v617h269z"/>
<glyph glyph-name="I" horiz-adv-x="565" unicode="I" d="M417 0h-268v1491h268v-1491z"/>
<glyph glyph-name="J" horiz-adv-x="902" unicode="J" d="M532 0h-532v234h435q63 0 63 64v1193h268v-1257q0 -128 -53 -181t-181 -53z"/>
<glyph glyph-name="K" horiz-adv-x="1277" unicode="K" d="M750 829h179q127 1 181 -53t53 -182v-594h-269v530q0 64 -63 64h-414v-594h-268v1491h268v-662h39l438 662h299z"/>
<glyph glyph-name="L" horiz-adv-x="988" unicode="L" d="M988 0h-618q-128 0 -181 53t-53 181v1257h269v-1193q0 -64 64 -64h519v-234z"/>
<glyph glyph-name="M" horiz-adv-x="1486" unicode="M" d="M1350 0h-268v1103h-9l-128 -381q-27 -84 -81 -124t-120 -40q-70 0 -124 40t-81 124l-126 379h-8v-1101h-269v1303q0 95 52 149t140 54q92 0 142 -36t83 -126l186 -511h9l187 511q23 60 51 95t70 51q41 16 103 16q87 0 139 -54t52 -149v-1303z"/>
<glyph glyph-name="N" horiz-adv-x="1345" unicode="N" d="M1210 1491v-1280q0 -107 -58 -167t-156 -59q-32 1 -58 5t-55 16t-52 38t-39 64l-387 1010h-9v-1118h-260v1293q0 43 10 77t26 56q15 22 37 38t41 24q20 8 42 12t34 6h23q38 0 64 -4q25 -4 55 -15t52 -35t36 -64l385 -1016h9v1119h260z"/>
<glyph glyph-name="O" horiz-adv-x="1307" unicode="O" d="M848 1256h-388q-64 0 -64 -63v-895q0 -64 64 -64h388q64 0 64 64v895q0 63 -64 63zM362 1491h583q127 1 181 -53t54 -182v-1022q0 -86 -24 -137t-74 -74t-137 -23h-583q-128 0 -181 53t-53 181v1022q0 128 53 182t181 53z"/>
<glyph glyph-name="P" d="M839 1256h-370q-64 0 -64 -63v-392h434q64 0 64 63v329q0 63 -64 63zM370 1491h567q65 -1 109 -13t72 -40t40 -73q12 -44 13 -109v-455q0 -128 -53 -181t-181 -53h-532v-567h-269v1256q0 128 53 182t181 53z" unicode="P"/>
<glyph glyph-name="Q" horiz-adv-x="1307" unicode="Q" d="M848 1256h-388q-64 0 -64 -63v-895q0 -64 64 -64h388q64 0 64 64v895q0 63 -64 63zM362 1491h583q127 1 181 -53t54 -182v-1022q0 -86 -24 -137t-74 -74t-137 -23h-157v-298h-268v298h-158q-128 0 -181 53t-53 181v1022q0 128 53 182t181 53z"/>
<glyph glyph-name="R" horiz-adv-x="1311" unicode="R" d="M839 1256h-370q-64 0 -64 -63v-370h434q64 0 64 63v307q0 63 -64 63zM370 1491h567q65 -1 109 -13t72 -40t40 -73q12 -44 13 -109v-433q0 -87 -23 -137t-74 -74t-137 -24h-168l479 -588h-319l-471 588h-53v-588h-269v1256q0 128 53 182t181 53z"/>
<glyph glyph-name="S" horiz-adv-x="1128" unicode="S" d="M809 0h-703v234h605q64 0 64 64v277q0 64 -64 64h-392q-87 -1 -137 23t-74 74t-23 138v382q-1 128 53 182t181 53h703v-235h-605q-63 0 -63 -63v-256q0 -63 63 -63h392q127 0 181 -54t54 -181v-405q0 -128 -54 -181t-181 -53z"/>
<glyph glyph-name="T" horiz-adv-x="1085" unicode="T" d="M677 0h-268v1256h-409v235h1086v-235h-409v-1256z"/>
<glyph glyph-name="U" horiz-adv-x="1307" unicode="U" d="M937 0h-567q-128 0 -181 53t-53 181v1257h269v-1193q0 -64 64 -64h370q64 0 64 64v1193h268v-1257q0 -128 -53 -181t-181 -53z"/>
<glyph glyph-name="V" horiz-adv-x="1290" unicode="V" d="M290 1491l353 -1206h9l350 1206h289l-409 -1308q-34 -113 -90 -155t-146 -43q-91 1 -148 43t-91 155l-407 1308h290z"/>
<glyph glyph-name="W" horiz-adv-x="1843" unicode="W" d="M1474 0h-346q-85 0 -135 30t-71 78q-51 -108 -206 -108h-346q-128 0 -181 53t-53 181v1257h269v-1193q0 -64 64 -64h255q64 0 64 64v1193h269v-1193q0 -64 63 -64h256q63 0 63 64v1193h269v-1257q0 -128 -53 -181t-181 -53z"/>
<glyph glyph-name="X" horiz-adv-x="1230" unicode="X" d="M1231 0h-311l-304 553l-305 -553h-311l464 756l-449 735h306l295 -536l293 536h307l-450 -735z"/>
<glyph glyph-name="Y" horiz-adv-x="1230" unicode="Y" d="M899 622h-149v-622h-268v622h-150q-128 0 -181 53t-53 181v635h268v-571q0 -64 65 -64h370q63 0 63 64v571h270v-635q0 -128 -54 -181t-181 -53z"/>
<glyph glyph-name="Z" horiz-adv-x="1085" unicode="Z" d="M1022 0h-821q-84 0 -121 22t-37 86q-1 25 7 53t23 59q15 30 25 48t28 47l577 933v8h-654v235h813h43t37 -2t35 -6q12 -4 27 -11q14 -8 22 -18t13 -26t5 -38q0 -82 -83 -215l-577 -933v-8h638v-234z"/>
<glyph glyph-name="bracketleft" horiz-adv-x="702" unicode="[" d="M341 1303v-1541h298v-188h-511v1917h511v-188h-298z"/>
<glyph glyph-name="backslash" horiz-adv-x="996" unicode="\" d="M1018 -512h-213l-826 2089h212z"/>
<glyph glyph-name="bracketright" horiz-adv-x="702" unicode="]" d="M362 -238v1541h-299v188h512v-1917h-512v188h299z"/>
<glyph glyph-name="asciicircum" horiz-adv-x="979" unicode="^" d="M815 1193l-321 287h-8l-322 -287l-121 142l333 293q51 46 114 46q22 0 44 -8t34 -16t30 -22l339 -293z"/>
<glyph glyph-name="underscore" d="M85 0v213h1065v-213h-1065z" unicode="_"/>
<glyph glyph-name="grave" horiz-adv-x="894" unicode="`" d="M396 1606l260 -322l-156 -115l-262 320z"/>
<glyph glyph-name="a" horiz-adv-x="1034" unicode="a" d="M691 256v191h-325q-23 0 -33 -10t-10 -32v-149q0 -23 10 -33t33 -10h282q23 0 33 10t10 33zM77 213v234q0 113 51 163t162 50h401v149q0 23 -10 33t-33 10h-520v213h596q111 0 162 -51t51 -162v-639q0 -111 -51 -162t-162 -51h-434q-111 0 -162 51t-51 162z"/>
<glyph glyph-name="b" horiz-adv-x="1085" unicode="b" d="M396 213h303q23 0 33 10t10 33v553q0 23 -10 33t-33 10h-345v-596q0 -23 10 -33t32 -10zM354 1491v-426h421q111 0 162 -51t51 -162v-639q0 -111 -51 -162t-162 -51h-456q-74 0 -121 22q-48 22 -70 70q-22 46 -22 121v1278h248z"/>
<glyph glyph-name="c" horiz-adv-x="864" unicode="c" d="M98 213v639q0 111 50 162t163 51h512v-213h-435q-23 0 -33 -10t-10 -33v-553q0 -23 10 -33t33 -10h435v-213h-512q-113 0 -163 51t-50 162z"/>
<glyph glyph-name="d" horiz-adv-x="1085" unicode="d" d="M388 213h303q15 1 24 5t13 14t5 24v596h-345q-23 0 -33 -10t-10 -33v-553q0 -23 10 -33t33 -10zM733 1065v426h247v-1278q0 -111 -51 -162t-163 -51h-455q-113 0 -163 51t-50 162v639q0 111 50 162t163 51h422z"/>
<glyph glyph-name="e" horiz-adv-x="1034" unicode="e" d="M345 809v-183h324q15 0 25 4t13 14q4 10 4 25v140q0 15 -4 25q-3 10 -13 14t-25 4h-281q-23 0 -33 -10t-10 -33zM959 852v-226q-1 -56 -13 -96t-38 -66t-66 -38t-96 -13h-401v-157q0 -23 10 -33t33 -10h541v-213h-618q-113 0 -163 51t-50 162v639q0 111 50 162t163 51 h435q111 0 162 -51t51 -162z"/>
<glyph glyph-name="f" horiz-adv-x="697" unicode="f" d="M354 852v-852h-248v1278q0 112 51 162t162 51h358v-213h-281q-22 0 -32 -10t-10 -32v-171h323v-213h-323z"/>
<glyph glyph-name="g" horiz-adv-x="1085" unicode="g" d="M691 852h-303q-23 0 -33 -10t-10 -33v-553q0 -23 10 -33t33 -10h345v596q-1 15 -5 25t-13 14t-24 4zM980 852v-1065q0 -75 -22 -122t-70 -69q-47 -22 -122 -22h-638v213h563q22 0 32 10t10 32v171h-422q-113 0 -163 51t-50 162v639q0 111 50 162t163 51h455 q112 0 163 -51t51 -162z"/>
<glyph glyph-name="h" horiz-adv-x="1064" unicode="h" d="M354 1491v-426h400q112 0 162 -51t51 -162v-852h-247v809q0 23 -10 33t-33 10h-323v-852h-248v1491h248z"/>
<glyph glyph-name="i" horiz-adv-x="459" unicode="i" d="M96 1357q0 56 39 95t95 39t95 -39t39 -95t-39 -95t-95 -39t-95 39t-39 95zM106 0v1065h248v-1065h-248z"/>
<glyph glyph-name="j" horiz-adv-x="538" unicode="j" d="M185 -171v1236h248v-1278q-1 -75 -23 -122t-69 -69t-122 -22h-347v213h270q23 0 33 10t10 32zM175 1357q0 56 39 95t95 39t95 -39t39 -95t-39 -95t-95 -39t-95 39t-39 95z"/>
<glyph glyph-name="k" horiz-adv-x="1051" unicode="k" d="M716 0v407q0 22 -10 32t-33 10h-319v-449h-248v1491h248v-829h30l319 403h273l-328 -403h102q111 0 162 -50t51 -163v-449h-247z"/>
<glyph glyph-name="l" horiz-adv-x="459" unicode="l" d="M106 0v1491h248v-1491h-248z"/>
<glyph glyph-name="m" horiz-adv-x="1601" unicode="m" d="M1214 852h-247q-22 0 -32 -10t-10 -33v-809h-248v809q0 23 -10 33t-33 10h-246q-23 0 -33 -10t-10 -33v-809h-247v852q0 111 50 162t163 51h315q137 0 175 -100q34 100 175 100h315q111 0 162 -51t51 -162v-852h-248v809q0 15 -4 25t-14 14t-24 4z"/>
<glyph glyph-name="n" horiz-adv-x="1055" unicode="n" d="M669 852h-281q-23 0 -33 -10t-10 -33v-809h-247v852q0 111 50 162t163 51h435q111 0 162 -51t51 -162v-852h-248v809q0 15 -4 25q-3 10 -13 14t-25 4z"/>
<glyph glyph-name="o" horiz-adv-x="1077" unicode="o" d="M691 852h-303q-23 0 -33 -10t-10 -33v-553q0 -23 10 -33t33 -10h303q15 1 24 5t13 14t5 24v553q-1 15 -5 25t-13 14t-24 4zM98 213v639q0 111 50 162t163 51h455q112 0 163 -51t51 -162v-639q0 -111 -51 -162t-163 -51h-455q-113 0 -163 51t-50 162z"/>
<glyph glyph-name="p" horiz-adv-x="1085" unicode="p" d="M699 852h-303q-22 0 -32 -10t-10 -33v-596h345q23 0 33 10t10 33v553q0 23 -10 33t-33 10zM354 0v-426h-248v1278q0 111 51 162t162 51h456q113 -1 163 -51t50 -162v-639q0 -113 -50 -163t-163 -50h-421z"/>
<glyph glyph-name="q" horiz-adv-x="1085" unicode="q" d="M691 852h-303q-23 0 -33 -10t-10 -33v-553q0 -23 10 -33t33 -10h345v596q-1 15 -5 25t-13 14t-24 4zM733 -426v426h-422q-113 0 -163 51t-50 162v639q0 111 50 162t163 51h455q112 0 163 -51t51 -162v-1278h-247z"/>
<glyph glyph-name="r" horiz-adv-x="702" unicode="r" d="M345 809v-809h-247v852q0 111 50 162t163 51h370v-213h-293q-23 0 -33 -10t-10 -33z"/>
<glyph glyph-name="s" horiz-adv-x="957" unicode="s" d="M894 433v-220q0 -111 -50 -162t-163 -51h-596v213h520q23 0 33 10t10 33v134q0 23 -10 33t-33 10h-328q-112 1 -163 51t-51 162v206q0 111 51 162t163 51h597v-213h-520q-16 0 -25 -4t-13 -14t-5 -25v-121q0 -22 10 -32t33 -10h327q113 0 163 -51t50 -162z"/>
<glyph glyph-name="t" horiz-adv-x="697" unicode="t" d="M354 1363v-298h323v-213h-323v-596q0 -23 10 -33t32 -10h281v-213h-358q-74 0 -121 22q-48 22 -70 70q-22 46 -22 121v1150h248z"/>
<glyph glyph-name="u" horiz-adv-x="1055" unicode="u" d="M388 213h281q15 1 25 5t13 14q4 10 4 24v809h248v-852q0 -111 -51 -162t-162 -51h-435q-113 0 -163 51t-50 162v852h247v-809q0 -23 10 -33t33 -10z"/>
<glyph glyph-name="v" horiz-adv-x="1034" unicode="v" d="M256 1065l258 -790h8l258 790h255l-322 -935q-27 -80 -77 -111t-118 -31q-34 0 -60 6t-52 21t-47 44t-36 71l-323 935h256z"/>
<glyph glyph-name="w" horiz-adv-x="1601" unicode="w" d="M388 213h246q23 0 33 10t10 33v809h248v-809q0 -23 10 -33t32 -10h247q22 0 32 10t10 33v809h248v-852q0 -111 -51 -162t-162 -51h-315q-138 0 -175 100q-35 -100 -175 -100h-315q-113 0 -163 51t-50 162v852h247v-809q0 -23 10 -33t33 -10z"/>
<glyph glyph-name="x" horiz-adv-x="992" unicode="x" d="M1014 0h-288l-230 356l-230 -356h-287l377 547l-360 518h283l217 -330l217 330h281l-355 -520z"/>
<glyph glyph-name="y" horiz-adv-x="1064" unicode="y" d="M345 1065v-809q0 -23 10 -33t33 -10h323v852h248v-1278q-1 -56 -13 -96q-12 -41 -38 -67t-66 -38t-96 -12h-618v213h541q22 0 32 10t10 32v171h-400q-113 0 -163 51t-50 162v852h247z"/>
<glyph glyph-name="z" horiz-adv-x="927" unicode="z" d="M886 0h-675q-168 0 -168 120q0 24 5 47q4 23 10 39t20 36q14 21 21 30t25 31t25 29l422 511v9h-500v213h638q171 0 171 -120q0 -29 -6 -53t-21 -50t-25 -40t-33 -42l-448 -538v-9h539v-213z"/>
<glyph glyph-name="braceleft" horiz-adv-x="809" unicode="{" d="M256 681v597q0 112 51 162t162 51h297v-188h-254q-23 0 -33 -10t-10 -33v-553q0 -72 -28 -114t-85 -61q57 -18 85 -60t28 -114v-554q0 -22 10 -32t33 -10h254v-188h-297q-111 0 -162 50t-51 163v597q0 22 -10 32t-33 10h-170v213h170q23 0 33 10t10 32z"/>
<glyph glyph-name="bar" horiz-adv-x="425" unicode="|" d="M106 -509v2086h213v-2086h-213z"/>
<glyph glyph-name="braceright" horiz-adv-x="809" unicode="}" d="M553 384v-597q0 -113 -50 -163t-162 -50h-298v188h255q16 0 25 4t13 14q4 9 5 24v554q-1 72 27 114t85 60q-57 20 -85 62t-27 113v553q0 23 -10 33t-33 10h-255v188h298q75 -1 121 -23t69 -68q22 -46 22 -122v-597q0 -22 10 -32t33 -10h170v-213h-170q-14 0 -24 -4 t-14 -14t-5 -24z"/>
<glyph glyph-name="asciitilde" d="M894 506h-170q-65 0 -112 20q-48 20 -74 62t-26 105v8q0 23 -10 33t-33 10h-85q-23 0 -33 -10t-10 -33v-173h-213v250q0 93 56 139t157 46h171q66 0 112 -19q46 -20 73 -62t27 -104v-9q0 -23 10 -33t32 -10h86q22 0 32 10t10 33v172h214v-248q0 -93 -57 -140t-157 -47z " unicode="~"/>
<glyph glyph-name="uni00A0" horiz-adv-x="496" unicode=" "/>
<glyph glyph-name="cent" d="M502 809v-553q0 -23 10 -33t33 -10h124v639h-124q-23 0 -33 -10t-10 -33zM256 213v639q0 111 51 162t162 51h200v213h191v-213h162v-213h-162v-639h162v-213h-162v-213h-191v213h-200q-111 0 -162 51t-51 162z" unicode="¢"/>
<glyph glyph-name="sterling" d="M469 1491h438v-235h-340q-65 0 -65 -63v-128h405v-187h-405v-580q0 -64 65 -64h583v-234h-681q-127 0 -181 53t-54 181v644h-191v187h191v191q0 128 54 182t181 53z" unicode="£"/>
<glyph glyph-name="yen" horiz-adv-x="1149" unicode="¥" d="M1008 545h-299v-126h299v-187h-299v-232h-268v232h-299v187h299v126h-299v188h216l-358 758h290l281 -662h8l281 662h290l-358 -758h216v-188z"/>
<glyph glyph-name="dieresis" horiz-adv-x="894" unicode="¨" d="M509 1357q0 56 39 95t95 39q55 0 95 -39t40 -95q0 -37 -18 -67t-49 -49q-31 -18 -68 -18q-56 0 -95 39t-39 95zM118 1357q0 56 39 95t95 39t95 -39t39 -95t-39 -95t-95 -39t-95 39t-39 95z"/>
<glyph glyph-name="copyright" horiz-adv-x="1660" unicode="©" d="M1278 1299h-894q-23 0 -33 -10t-10 -33v-1022q0 -23 10 -33t33 -10h894q23 0 33 10t10 33v1022q0 23 -10 33t-33 10zM128 213v1065q0 112 51 162t162 51h980q111 -1 162 -51t51 -162v-1065q0 -111 -51 -162t-162 -51h-980q-111 0 -162 51t-51 162zM601 605v298 q0 75 22 121t69 70q47 22 121 22h264v-191h-221q-23 0 -33 -10t-10 -33v-256q0 -23 10 -33t33 -10h221v-191h-264q-111 0 -161 51t-51 162z"/>
<glyph glyph-name="guillemotleft" horiz-adv-x="1038" unicode="«" d="M955 864l-207 -276l207 -277l-171 -115l-286 392l286 392zM616 980l-288 -392l288 -392l-173 -113l-358 505l358 505z"/>
<glyph glyph-name="uni00AD" horiz-adv-x="809" unicode="­" d="M85 482v234h639v-234h-639z"/>
<glyph glyph-name="registered" horiz-adv-x="1660" unicode="®" d="M888 945h-89q-33 0 -33 -31v-105h122q32 0 32 30v75q0 31 -32 31zM728 1116h243q89 0 126 -44t37 -127v-136q0 -143 -118 -161l143 -256h-241l-126 247h-26v-247h-213v553q0 171 175 171zM1278 1299h-894q-23 0 -33 -10t-10 -33v-1022q0 -23 10 -33t33 -10h894 q23 0 33 10t10 33v1022q0 23 -10 33t-33 10zM128 213v1065q0 112 51 162t162 51h980q111 -1 162 -51t51 -162v-1065q0 -111 -51 -162t-162 -51h-980q-111 0 -162 51t-51 162z"/>
<glyph glyph-name="acute" horiz-adv-x="894" unicode="´" d="M238 1284l260 322l158 -117l-262 -320z"/>
<glyph glyph-name="cedilla" horiz-adv-x="894" unicode="¸" d="M639 -256q0 -63 -20 -101q-19 -37 -55 -53t-91 -16h-217v128h163q25 0 37 10t13 34q-1 23 -13 32t-37 9q-26 1 -47 7t-40 22q-20 16 -30 48t-10 79v57h149v-55q0 -11 4 -17t13 -10q9 -3 24 -3q83 -1 120 -37t37 -134z"/>
<glyph glyph-name="guillemotright" horiz-adv-x="1038" unicode="»" d="M85 311l207 277l-207 276l171 116l285 -392l-285 -392zM424 196l287 392l-287 392l172 113l359 -505l-359 -505z"/>
<glyph glyph-name="circumflex" horiz-adv-x="894" unicode="ˆ" d="M701 1171l-250 237h-8l-250 -237l-130 144l272 248q51 47 112 47q59 0 109 -47l275 -248z"/>
<glyph glyph-name="tilde" horiz-adv-x="894" unicode="˜" d="M641 1214h-94q-34 0 -64 8t-56 24q-25 16 -41 46q-16 29 -16 67v9q0 23 -12 38t-26 20t-31 5q-29 -1 -49 -15t-20 -48v-135h-179v190q0 45 19 79t50 52t64 26t68 9h93q35 0 65 -8t56 -24t42 -45t16 -67v-10q0 -24 12 -39q12 -16 25 -20q14 -4 31 -4q28 0 48 14t20 49v134 h179v-189q-1 -45 -19 -79t-49 -52q-31 -19 -65 -27t-67 -8z"/>
<glyph glyph-name="afii10023" horiz-adv-x="1085" unicode="Ё" d="M703 1738q1 60 41 100t100 40t100 -40t40 -100q0 -59 -40 -100t-100 -41t-100 41t-41 100zM281 1738q0 29 11 55q11 27 30 45t45 29t55 11q60 0 100 -40t41 -100q-1 -59 -41 -100t-100 -41t-100 41q-41 41 -41 100zM362 1491h640v-235h-542q-64 0 -64 -63v-319h606v-235 h-606v-341q0 -64 64 -64h542v-234h-640q-128 0 -181 53t-53 181v1022q0 128 53 182t181 53z"/>
<glyph glyph-name="afii10051" horiz-adv-x="1477" unicode="Ђ" d="M1180 0h-341v234h243q64 0 64 64v277q0 64 -64 64h-430v-639h-268v1256h-384v235h1138v-235h-486v-382h528q88 0 138 -24t73 -74q23 -51 23 -137v-405q0 -128 -53 -181t-181 -53z"/>
<glyph glyph-name="afii10052" horiz-adv-x="988" unicode="Ѓ" d="M660 2020l143 -150l-301 -293l-144 146zM370 1491h618v-235h-519q-64 0 -64 -63v-1193h-269v1256q0 128 53 182t181 53z"/>
<glyph glyph-name="afii10053" horiz-adv-x="1124" unicode="Є" d="M605 1491h434v-235h-379q-32 0 -50 -16t-35 -47l-170 -319h634v-235h-634l170 -341q13 -32 33 -48t52 -16h379v-234h-434q-33 0 -61 4t-52 14t-42 19q-18 11 -36 29t-30 32t-27 42q-15 26 -25 44t-25 50l-179 362q-43 88 -43 160t43 160l179 340q1 3 5 10q14 28 22 42 t22 38t24 36t24 30q16 18 30 28q14 9 32 21q20 11 40 17t46 10t53 3z"/>
<glyph glyph-name="afii10054" horiz-adv-x="1128" unicode="Ѕ" d="M809 0h-703v234h605q64 0 64 64v277q0 64 -64 64h-392q-87 -1 -137 23t-74 74t-23 138v382q-1 128 53 182t181 53h703v-235h-605q-63 0 -63 -63v-256q0 -63 63 -63h392q127 0 181 -54t54 -181v-405q0 -128 -54 -181t-181 -53z"/>
<glyph glyph-name="afii10055" horiz-adv-x="523" unicode="І" d="M396 0h-268v1491h268v-1491z"/>
<glyph glyph-name="afii10056" horiz-adv-x="523" unicode="Ї" d="M307 1738q1 60 41 100t99 40t100 -40t41 -100q0 -59 -41 -100t-100 -41q-39 1 -71 19t-50 50t-19 72zM-63 1738q1 60 41 100t99 40t99 -40t41 -100q-1 -59 -41 -100t-99 -41t-99 41t-41 100zM396 0h-268v1491h268v-1491z"/>
<glyph glyph-name="afii10057" horiz-adv-x="902" unicode="Ј" d="M532 0h-532v234h435q63 0 63 64v1193h268v-1257q0 -128 -53 -181t-181 -53z"/>
<glyph glyph-name="afii10058" horiz-adv-x="2039" unicode="Љ" d="M1295 234h349q64 0 64 64v307q0 64 -64 64h-413v-371q0 -64 64 -64zM1742 0h-545q-128 0 -181 53t-53 181v1012h-8l-654 -1246h-322l739 1355q30 49 64 81t70 46q38 14 72 20t82 6q109 0 167 -52t58 -178v-375h511q128 1 182 -53t53 -181v-435q1 -86 -23 -137t-75 -74 t-137 -23z"/>
<glyph glyph-name="afii10059" horiz-adv-x="1971" unicode="Њ" d="M1227 234h350q63 0 63 64v292q0 64 -63 64h-414v-356q0 -64 64 -64zM1674 0h-546q-128 0 -181 53t-53 181v420h-477v-654h-268v1491h268v-603h477v603h269v-603h511q128 0 181 -53t53 -181v-420q0 -128 -53 -181t-181 -53z"/>
<glyph glyph-name="afii10060" horiz-adv-x="1477" unicode="Ћ" d="M0 1491h1138v-235h-486v-382h507q64 0 108 -13q45 -13 73 -41t40 -73q12 -44 13 -108v-639h-269v575q0 64 -63 64h-409v-639h-268v1256h-384v235z"/>
<glyph glyph-name="afii10061" horiz-adv-x="1298" unicode="Ќ" d="M773 2020l143 -150l-300 -293l-145 146zM750 829h179q127 1 181 -53t53 -182v-594h-269v530q0 64 -63 64h-414v-594h-268v1491h268v-662h39l438 662h299z"/>
<glyph glyph-name="afii10062" d="M573 1798h175q22 0 32 10t10 32v50h222v-79q0 -112 -51 -163t-162 -51h-277q-111 0 -162 51t-51 163v79h221v-50q0 -14 4 -24t14 -14t25 -4zM1099 1491v-1265q0 -122 -52 -174t-173 -52h-750v234h707v369h-499q-122 -1 -174 53t-52 173v662h268v-654h457v654h268z" unicode="Ў"/>
<glyph glyph-name="afii10145" horiz-adv-x="1307" unicode="Џ" d="M937 0h-149v-298h-268v298h-150q-128 0 -181 53t-53 181v1257h269v-1193q0 -64 64 -64h370q64 0 64 64v1193h268v-1257q0 -128 -53 -181t-181 -53z"/>
<glyph glyph-name="afii10017" horiz-adv-x="1323" unicode="А" d="M843 624l-178 581h-9l-177 -581h364zM0 0l426 1307q37 113 92 156t144 43q60 0 102 -18t78 -62q35 -44 59 -119l424 -1307h-292l-119 390h-505l-117 -390h-292z"/>
<glyph glyph-name="afii10018" horiz-adv-x="1260" unicode="Б" d="M396 639v-341q0 -64 64 -64h371q63 0 63 64v277q0 64 -63 64h-435zM929 0h-567q-128 0 -181 53t-53 181v1022q0 128 53 182t181 53h746v-235h-648q-64 0 -64 -63v-319h533q127 0 181 -54t53 -181v-405q0 -128 -53 -181t-181 -53z"/>
<glyph glyph-name="afii10019" horiz-adv-x="1298" unicode="В" d="M396 1193v-319h454q66 0 66 63v256q0 63 -64 63h-392q-64 0 -64 -63zM460 234h392q64 0 64 64v277q0 64 -66 64h-454v-341q0 -64 64 -64zM950 0h-588q-128 0 -181 53t-53 181v1022q0 128 53 182t181 53h588q127 1 181 -53t54 -182v-297q1 -89 -31 -137t-91 -66 q39 -12 65 -36t42 -65q16 -42 15 -102v-319q1 -128 -53 -181t-182 -53z"/>
<glyph glyph-name="afii10020" horiz-adv-x="988" unicode="Г" d="M370 1491h618v-235h-519q-64 0 -64 -63v-1193h-269v1256q0 128 53 182t181 53z"/>
<glyph glyph-name="afii10021" horiz-adv-x="1583" unicode="Д" d="M1124 234l-327 965h-9l-328 -965h664zM1317 0h-1049v-298h-247v532h150l387 1081q38 107 94 149t140 42q82 0 138 -42t94 -149l390 -1081h149v-532h-246v298z"/>
<glyph glyph-name="afii10022" horiz-adv-x="1085" unicode="Е" d="M362 1491h640v-235h-542q-64 0 -64 -63v-319h606v-235h-606v-341q0 -64 64 -64h542v-234h-640q-128 0 -181 53t-53 181v1022q0 128 53 182t181 53z"/>
<glyph glyph-name="afii10024" horiz-adv-x="1724" unicode="Ж" d="M1376 594h-380v-594h-268v594h-379v-594h-268v603q-1 118 53 173t173 55h121l-365 660h291l351 -660h23v660h268v-660h24l352 660h289l-364 -660h122q119 0 172 -55t53 -173v-603h-268v594z"/>
<glyph glyph-name="afii10025" horiz-adv-x="1043" unicode="З" d="M652 242l-317 384q-21 26 -31 40t-22 38q-10 24 -10 50q0 16 4 30t9 25t15 25t17 22q8 10 20 24l313 368v8h-607v235h764q99 1 147 -29t48 -96q0 -31 -8 -58t-23 -54q-16 -26 -29 -44t-37 -47l-334 -405v-8l343 -431q44 -55 66 -97t22 -96q0 -68 -47 -97t-148 -29h-764 v234h609v8z"/>
<glyph glyph-name="afii10026" horiz-adv-x="1345" unicode="И" d="M136 189v1302h269v-1119h8l365 974q61 160 240 160h22t25 -3q17 -2 29 -5t28 -10q16 -6 26 -16q12 -10 24 -24t20 -34q8 -18 13 -44t5 -55v-1315h-269v1118h-8l-366 -967q-33 -85 -97 -125t-142 -41q-92 0 -142 55t-50 149z"/>
<glyph glyph-name="afii10027" horiz-adv-x="1345" unicode="Й" d="M628 1798h175q9 0 16 2t12 4q5 3 8 8t5 12t2 16v50h221v-79q0 -112 -51 -163t-162 -51h-277q-111 0 -162 51t-51 163v79h222v-50q0 -22 10 -32t32 -10zM136 189v1302h269v-1119h8l365 974q61 160 240 160h22t25 -3q17 -2 29 -5t28 -10q16 -6 26 -16q12 -10 24 -24t20 -34 q8 -18 13 -44t5 -55v-1315h-269v1118h-8l-366 -967q-33 -85 -97 -125t-142 -41q-92 0 -142 55t-50 149z"/>
<glyph glyph-name="afii10028" horiz-adv-x="1298" unicode="К" d="M750 829h179q127 1 181 -53t53 -182v-594h-269v530q0 64 -63 64h-414v-594h-268v1491h268v-662h39l438 662h299z"/>
<glyph glyph-name="afii10029" horiz-adv-x="1290" unicode="Л" d="M1002 0l-354 1205h-9l-349 -1205h-290l409 1307q35 113 91 156t146 43q44 0 78 -9t64 -31t54 -61t42 -98l407 -1307h-289z"/>
<glyph glyph-name="afii10030" horiz-adv-x="1486" unicode="М" d="M1350 0h-268v1103h-9l-128 -381q-27 -84 -81 -124t-120 -40q-70 0 -124 40t-81 124l-126 379h-8v-1101h-269v1303q0 95 52 149t140 54q92 0 142 -36t83 -126l186 -511h9l187 511q23 60 51 95t70 51q41 16 103 16q87 0 139 -54t52 -149v-1303z"/>
<glyph glyph-name="afii10031" horiz-adv-x="1333" unicode="Н" d="M1185 1491v-1491h-269v639h-499v-639h-268v1491h268v-617h499v617h269z"/>
<glyph glyph-name="afii10032" horiz-adv-x="1307" unicode="О" d="M848 1256h-388q-64 0 -64 -63v-895q0 -64 64 -64h388q64 0 64 64v895q0 63 -64 63zM362 1491h583q127 1 181 -53t54 -182v-1022q0 -86 -24 -137t-74 -74t-137 -23h-583q-128 0 -181 53t-53 181v1022q0 128 53 182t181 53z"/>
<glyph glyph-name="afii10033" horiz-adv-x="1307" unicode="П" d="M370 1491h567q65 -1 109 -13t72 -40t40 -73q12 -44 13 -109v-1256h-268v1193q0 63 -64 63h-370q-64 0 -64 -63v-1193h-269v1256q0 128 53 182t181 53z"/>
<glyph glyph-name="afii10034" d="M839 1256h-370q-64 0 -64 -63v-392h434q64 0 64 63v329q0 63 -64 63zM370 1491h567q65 -1 109 -13t72 -40t40 -73q12 -44 13 -109v-455q0 -128 -53 -181t-181 -53h-532v-567h-269v1256q0 128 53 182t181 53z" unicode="Р"/>
<glyph glyph-name="afii10035" horiz-adv-x="979" unicode="С" d="M362 1491h575v-235h-477q-64 0 -64 -63v-895q0 -64 64 -64h477v-234h-575q-128 0 -181 53t-53 181v1022q0 128 53 182t181 53z"/>
<glyph glyph-name="afii10036" horiz-adv-x="1085" unicode="Т" d="M677 0h-268v1256h-409v235h1086v-235h-409v-1256z"/>
<glyph glyph-name="afii10037" d="M1099 1491v-1265q0 -122 -52 -174t-173 -52h-750v234h707v369h-499q-122 -1 -174 53t-52 173v662h268v-654h457v654h268z" unicode="У"/>
<glyph glyph-name="afii10038" horiz-adv-x="1720" unicode="Ф" d="M374 1073v-636q0 -65 65 -65h287v766h-287q-65 0 -65 -65zM1282 1138h-288v-766h288q64 0 64 65v636q0 65 -64 65zM341 1372h385v119h268v-119h386q128 0 181 -53t53 -181v-766q0 -128 -53 -181t-181 -53h-386v-138h-268v138h-385q-127 0 -181 54t-54 180v766 q0 128 54 181t181 53z"/>
<glyph glyph-name="afii10039" horiz-adv-x="1230" unicode="Х" d="M1231 0h-311l-304 553l-305 -553h-311l464 756l-449 735h306l295 -536l293 536h307l-450 -735z"/>
<glyph glyph-name="afii10040" horiz-adv-x="1384" unicode="Ц" d="M1116 0h-746q-128 0 -181 53t-53 181v1257h269v-1193q0 -64 64 -64h434v1257h268v-1257h192v-532h-247v298z"/>
<glyph glyph-name="afii10041" horiz-adv-x="1230" unicode="Ч" d="M1082 0h-269v605h-494q-128 0 -181 53t-53 181v652h269v-588q0 -64 63 -64h396v652h269v-1491z"/>
<glyph glyph-name="afii10042" horiz-adv-x="1843" unicode="Ш" d="M1474 0h-1104q-128 0 -181 53t-53 181v1257h269v-1193q0 -64 64 -64h319v1257h269v-1257h319q63 0 63 64v1193h269v-1257q0 -128 -53 -181t-181 -53z"/>
<glyph glyph-name="afii10043" horiz-adv-x="1920" unicode="Щ" d="M1653 0h-1283q-128 0 -181 53t-53 181v1257h269v-1193q0 -64 64 -64h319v1257h269v-1257h382v1257h269v-1257h192v-532h-247v298z"/>
<glyph glyph-name="afii10044" horiz-adv-x="1451" unicode="Ъ" d="M685 234h372q63 0 63 64v307q0 64 -63 64h-435v-371q0 -64 63 -64zM622 1256v-353h532q88 1 138 -23t73 -74t23 -137v-435q0 -128 -53 -181t-181 -53h-566q-128 0 -181 53t-53 181v959q0 63 -64 63h-290v235h388q128 1 181 -53t53 -182z"/>
<glyph glyph-name="afii10045" horiz-adv-x="1737" unicode="Ы" d="M469 234h348q65 0 65 64v307q0 64 -65 64h-412v-371q0 -64 64 -64zM916 0h-546q-128 0 -181 53t-53 181v1257h269v-588h511q86 1 137 -23t74 -74t23 -137v-435q0 -128 -53 -181t-181 -53zM1589 0h-268v1491h268v-1491z"/>
<glyph glyph-name="afii10046" d="M469 234h370q64 0 64 64v307q0 64 -64 64h-434v-371q0 -64 64 -64zM937 0h-567q-128 0 -181 53t-53 181v1257h269v-588h532q86 1 137 -23t74 -74t23 -137v-435q0 -128 -53 -181t-181 -53z" unicode="Ь"/>
<glyph glyph-name="afii10047" horiz-adv-x="1085" unicode="Э" d="M85 1491h639q128 1 182 -53t53 -182v-1022q1 -128 -53 -181t-182 -53h-639v234h541q65 0 65 64v341h-606v235h606v319q0 63 -65 63h-541v235z"/>
<glyph glyph-name="afii10048" horiz-adv-x="1766" unicode="Ю" d="M1307 1256h-366q-63 0 -63 -63v-895q0 -64 63 -64h366q65 0 65 64v895q0 63 -65 63zM843 1491h563q65 -1 109 -13t72 -40q29 -28 41 -73q12 -44 12 -109v-1022q0 -128 -53 -181t-181 -53h-563q-127 0 -181 53t-53 181v405h-192v-639h-268v1491h268v-617h192v382 q-1 128 53 182t181 53z"/>
<glyph glyph-name="afii10049" horiz-adv-x="1277" unicode="Я" d="M809 1256h-370q-65 0 -65 -63v-329q0 -63 65 -63h435v392q0 63 -65 63zM341 1491h566q127 1 181 -53t54 -182v-1256h-268v567h-54l-450 -567h-327l457 567h-159q-127 0 -181 53t-54 181v455q0 128 54 182t181 53z"/>
<glyph glyph-name="afii10065" horiz-adv-x="1034" unicode="а" d="M691 256v191h-325q-23 0 -33 -10t-10 -32v-149q0 -23 10 -33t33 -10h282q23 0 33 10t10 33zM77 213v234q0 113 51 163t162 50h401v149q0 23 -10 33t-33 10h-520v213h596q111 0 162 -51t51 -162v-639q0 -111 -51 -162t-162 -51h-434q-111 0 -162 51t-51 162z"/>
<glyph glyph-name="afii10066" horiz-adv-x="1085" unicode="б" d="M396 213h303q23 0 33 10t10 33v553q0 23 -10 33t-33 10h-345v-596q0 -23 10 -33t32 -10zM354 1236v-171h421q111 0 162 -51t51 -162v-639q0 -111 -51 -162t-162 -51h-456q-74 0 -121 22q-48 22 -70 70q-22 46 -22 121v1065q0 112 51 162t162 51h606v-213h-529 q-22 0 -32 -10t-10 -32z"/>
<glyph glyph-name="afii10067" horiz-adv-x="1043" unicode="в" d="M345 809v-151h324q15 0 25 4t13 14q4 10 4 25v108q0 15 -4 25q-3 10 -13 14t-25 4h-281q-23 0 -33 -10t-10 -33zM345 445v-189q0 -23 10 -33t33 -10h281q15 1 25 5t13 14q4 10 4 24v146q0 43 -42 43h-324zM959 382v-169q0 -111 -51 -162t-162 -51h-435q-113 0 -163 51 t-50 162v639q0 111 50 162t163 51h435q111 0 162 -51t51 -162v-130q0 -44 -10 -76t-33 -57q-23 -24 -60 -38q55 -22 79 -63t24 -106z"/>
<glyph glyph-name="afii10068" horiz-adv-x="787" unicode="г" d="M345 809v-809h-247v852q0 111 50 162t163 51h477v-213h-400q-23 0 -33 -10t-10 -33z"/>
<glyph glyph-name="afii10069" horiz-adv-x="1305" unicode="д" d="M892 213l-234 586h-8l-235 -586h477zM1059 0h-811v-298h-227v511h139l311 722q30 71 70 105t113 35q74 0 114 -34t71 -104l309 -724h136v-511h-225v298z"/>
<glyph glyph-name="afii10070" horiz-adv-x="1034" unicode="е" d="M345 809v-183h324q15 0 25 4t13 14q4 10 4 25v140q0 15 -4 25q-3 10 -13 14t-25 4h-281q-23 0 -33 -10t-10 -33zM959 852v-226q-1 -56 -13 -96t-38 -66t-66 -38t-96 -13h-401v-157q0 -23 10 -33t33 -10h541v-213h-618q-113 0 -163 51t-50 162v639q0 111 50 162t163 51 h435q111 0 162 -51t51 -162z"/>
<glyph glyph-name="afii10072" horiz-adv-x="1516" unicode="ж" d="M1161 449h-279v-449h-248v449h-278q-23 0 -33 -10t-10 -32v-407h-247v449q0 113 50 163t163 50h70l-286 403h269l273 -403h29v403h248v-403h30l273 403h268l-286 -403h71q111 0 162 -50t51 -163v-449h-248v407q0 22 -10 32t-32 10z"/>
<glyph glyph-name="afii10073" horiz-adv-x="890" unicode="з" d="M675 0h-632v213h492v9l-230 242q-11 12 -16 20t-13 22t-12 28t-4 31q0 59 45 100l211 178v9h-473v213h632q173 0 173 -136q0 -77 -79 -151l-239 -211v-9l245 -273q73 -78 73 -151q0 -134 -173 -134z"/>
<glyph glyph-name="afii10074" horiz-adv-x="1094" unicode="и" d="M996 0h-238v705h-8l-279 -577q-37 -76 -77 -107t-115 -31q-91 0 -136 40t-45 115v920h239v-707h8l287 592q16 30 34 54t42 40q22 16 50 24t59 7q45 -1 79 -13t53 -30q17 -18 29 -44q12 -24 15 -42t3 -37v-909z"/>
<glyph glyph-name="afii10075" horiz-adv-x="1094" unicode="й" d="M494 1395h171q22 0 32 10t10 32v54h213v-70q0 -112 -50 -163t-163 -51h-256q-111 0 -162 51t-51 163v70h213v-54q0 -22 10 -32t33 -10zM996 0h-238v705h-8l-279 -577q-37 -76 -77 -107t-115 -31q-91 0 -136 40t-45 115v920h239v-707h8l287 592q16 30 34 54t42 40 q22 16 50 24t59 7q45 -1 79 -13t53 -30q17 -18 29 -44q12 -24 15 -42t3 -37v-909z"/>
<glyph glyph-name="afii10076" horiz-adv-x="1038" unicode="к" d="M673 449h-319v-449h-248v1065h248v-403h30l315 403h277l-324 -403h98q111 0 162 -50t51 -163v-449h-247v407q0 22 -10 32t-33 10z"/>
<glyph glyph-name="afii10077" horiz-adv-x="1077" unicode="л" d="M823 0l-280 790h-8l-279 -790h-256l343 935q31 82 79 112t116 30t118 -30q48 -30 77 -112l344 -935h-254z"/>
<glyph glyph-name="afii10078" horiz-adv-x="1268" unicode="м" d="M1171 0h-246v699h-9l-130 -280q-22 -48 -61 -74t-89 -26q-31 1 -59 13t-50 34t-37 53l-136 280h-9v-699h-247v912q0 163 172 163q70 0 113 -29t70 -85l179 -375h9l174 375q53 114 184 114q172 0 172 -163v-912z"/>
<glyph glyph-name="afii10079" horiz-adv-x="1073" unicode="н" d="M967 0h-247v443h-366v-443h-248v1065h248v-409h366v409h247v-1065z"/>
<glyph glyph-name="afii10080" horiz-adv-x="1077" unicode="о" d="M691 852h-303q-23 0 -33 -10t-10 -33v-553q0 -23 10 -33t33 -10h303q15 1 24 5t13 14t5 24v553q-1 15 -5 25t-13 14t-24 4zM98 213v639q0 111 50 162t163 51h455q112 0 163 -51t51 -162v-639q0 -111 -51 -162t-163 -51h-455q-113 0 -163 51t-50 162z"/>
<glyph glyph-name="afii10081" horiz-adv-x="1055" unicode="п" d="M669 852h-281q-23 0 -33 -10t-10 -33v-809h-247v852q0 111 50 162t163 51h435q111 0 162 -51t51 -162v-852h-248v809q0 15 -4 25q-3 10 -13 14t-25 4z"/>
<glyph glyph-name="afii10082" horiz-adv-x="1085" unicode="р" d="M699 852h-303q-22 0 -32 -10t-10 -33v-596h345q23 0 33 10t10 33v553q0 23 -10 33t-33 10zM354 0v-426h-248v1278q0 111 51 162t162 51h456q113 -1 163 -51t50 -162v-639q0 -113 -50 -163t-163 -50h-421z"/>
<glyph glyph-name="afii10083" horiz-adv-x="885" unicode="с" d="M98 213v639q0 111 50 162t163 51h512v-213h-435q-23 0 -33 -10t-10 -33v-553q0 -23 10 -33t33 -10h435v-213h-512q-113 0 -163 51t-50 162z"/>
<glyph glyph-name="afii10084" horiz-adv-x="945" unicode="т" d="M596 0h-247v852h-328v213h904v-213h-329v-852z"/>
<glyph glyph-name="afii10085" horiz-adv-x="1064" unicode="у" d="M345 1065v-809q0 -23 10 -33t33 -10h323v852h248v-1278q-1 -56 -13 -96q-12 -41 -38 -67t-66 -38t-96 -12h-618v213h541q22 0 32 10t10 32v171h-400q-113 0 -163 51t-50 162v852h247z"/>
<glyph glyph-name="afii10086" horiz-adv-x="1469" unicode="ф" d="M345 256q0 -23 10 -33t33 -10h224v639h-224q-23 0 -33 -10t-10 -33v-553zM1082 852h-224v-639h224q22 0 32 10t10 33v553q0 15 -4 25t-14 14q-9 4 -24 4zM98 213v639q0 111 50 162t163 51h301v426h246v-426h301q111 0 162 -51t51 -162v-639q0 -111 -51 -162t-162 -51 h-301v-426h-246v426h-301q-113 0 -163 51t-50 162z"/>
<glyph glyph-name="afii10087" horiz-adv-x="992" unicode="х" d="M1014 0h-288l-230 356l-230 -356h-287l377 547l-360 518h283l217 -330l217 330h281l-355 -520z"/>
<glyph glyph-name="afii10088" horiz-adv-x="1132" unicode="ц" d="M388 213h323v852h248v-852h153v-511h-226v298h-575q-113 0 -163 51t-50 162v852h247v-809q0 -23 10 -33t33 -10z"/>
<glyph glyph-name="afii10089" horiz-adv-x="1022" unicode="ч" d="M366 618h303v447h247v-1065h-247v405h-379q-111 1 -162 51t-51 162v447h246v-405q1 -15 5 -24q4 -10 14 -14t24 -4z"/>
<glyph glyph-name="afii10090" horiz-adv-x="1601" unicode="ш" d="M388 213h289v852h248v-852h289q22 0 32 10t10 33v809h248v-852q0 -111 -51 -162t-162 -51h-980q-113 0 -163 51t-50 162v852h247v-809q0 -23 10 -33t33 -10z"/>
<glyph glyph-name="afii10091" horiz-adv-x="1677" unicode="щ" d="M388 213h289v852h248v-852h331v852h248v-852h153v-511h-226v298h-1120q-113 0 -163 51t-50 162v852h247v-809q0 -23 10 -33t33 -10z"/>
<glyph glyph-name="afii10092" horiz-adv-x="1209" unicode="ъ" d="M563 213h280q23 0 33 10t10 33v149q0 22 -10 32t-33 10h-323v-191q0 -9 2 -16t4 -12q4 -4 9 -8t12 -6t16 -1zM486 0q-56 0 -96 12t-66 39q-26 26 -40 66q-12 40 -12 96v596q0 15 -4 25t-14 14t-24 4h-230v213h307q111 0 162 -51t51 -162v-192h400q112 0 163 -50t51 -163 v-234q0 -111 -51 -162t-163 -51h-434z"/>
<glyph glyph-name="afii10093" horiz-adv-x="1405" unicode="ы" d="M388 213h260q23 0 33 10t10 33v149q0 22 -10 32t-33 10h-303v-191q0 -23 10 -33t33 -10zM345 1065v-405h379q111 0 162 -50t51 -163v-234q0 -111 -51 -162t-162 -51h-413q-113 0 -163 51t-50 162v852h247zM1052 0v1065h247v-1065h-247z"/>
<glyph glyph-name="afii10094" horiz-adv-x="1034" unicode="ь" d="M388 213h281q15 1 25 5t13 14q4 10 4 24v149q0 22 -10 32t-32 10h-324v-191q0 -23 10 -33t33 -10zM345 1065v-405h401q111 0 162 -50t51 -163v-234q0 -111 -51 -162t-162 -51h-435q-113 0 -163 51t-50 162v852h247z"/>
<glyph glyph-name="afii10095" horiz-adv-x="979" unicode="э" d="M634 256v187h-549v213h549v153q0 15 -4 25t-14 14t-24 4h-507v213h584q111 0 162 -51t51 -162v-639q0 -111 -51 -162t-162 -51h-584v213h507q14 1 24 5t14 14t4 24z"/>
<glyph glyph-name="afii10096" horiz-adv-x="1456" unicode="ю" d="M1069 852h-281q-14 0 -24 -4t-14 -14t-4 -25v-553q0 -23 10 -33t32 -10h281q23 0 33 10t10 33v553q0 23 -10 33t-33 10zM498 213v230h-144v-443h-248v1065h248v-409h144v196q0 111 51 162t162 51h435q112 0 162 -51t51 -162v-639q-1 -111 -51 -162t-162 -51h-435 q-111 0 -162 51t-51 162z"/>
<glyph glyph-name="afii10097" horiz-adv-x="1043" unicode="я" d="M656 852h-282q-22 0 -32 -10t-10 -33v-170q0 -23 10 -33t32 -10h325v213q0 23 -10 33t-33 10zM699 0v384h-30l-315 -384h-311l327 384h-72q-111 0 -162 50t-51 162v256q0 111 51 162t162 51h435q112 0 162 -51t50 -162v-852h-246z"/>
<glyph glyph-name="afii10071" horiz-adv-x="1034" unicode="ё" d="M579 1357q0 56 39 95q40 39 96 39t95 -39t39 -95t-39 -95t-95 -39t-96 39q-39 39 -39 95zM187 1357q0 56 39 95q40 39 96 39t95 -39t39 -95t-39 -95t-95 -39t-96 39q-39 39 -39 95zM345 809v-183h324q15 0 25 4t13 14q4 10 4 25v140q0 15 -4 25q-3 10 -13 14t-25 4h-281 q-23 0 -33 -10t-10 -33zM959 852v-226q-1 -56 -13 -96t-38 -66t-66 -38t-96 -13h-401v-157q0 -23 10 -33t33 -10h541v-213h-618q-113 0 -163 51t-50 162v639q0 111 50 162t163 51h435q111 0 162 -51t51 -162z"/>
<glyph glyph-name="afii10099" horiz-adv-x="1115" unicode="ђ" d="M1031 447v-660q-1 -75 -23 -122t-69 -69t-122 -22h-276v213h201q22 0 32 10t10 32v576q0 22 -10 32t-32 10h-325v-447h-246v878h-171v187h171v426h246v-426h469v-187h-469v-218h400q112 0 163 -50t51 -163z"/>
<glyph glyph-name="afii10100" horiz-adv-x="787" unicode="ѓ" d="M238 1284l260 322l158 -117l-262 -320zM345 809v-809h-247v852q0 111 50 162t163 51h477v-213h-400q-23 0 -33 -10t-10 -33z"/>
<glyph glyph-name="afii10101" horiz-adv-x="977" unicode="є" d="M364 443l107 -187q22 -43 64 -43h357v-213h-392q-32 0 -60 6t-50 14t-43 27q-21 18 -35 31q-14 14 -31 40q-18 26 -27 42l-27 48q-2 3 -3 5l-106 187q-18 30 -28 48t-18 46q-9 28 -9 55q0 73 55 150l106 153q10 15 29 44t30 44q11 14 29 38t36 36q16 12 40 26t52 20t60 5 h392v-213h-357q-16 0 -29 -8t-19 -14t-16 -21l-107 -153h528v-213h-528z"/>
<glyph glyph-name="afii10102" horiz-adv-x="957" unicode="ѕ" d="M894 433v-220q0 -111 -50 -162t-163 -51h-596v213h520q23 0 33 10t10 33v134q0 23 -10 33t-33 10h-328q-112 1 -163 51t-51 162v206q0 111 51 162t163 51h597v-213h-520q-16 0 -25 -4t-13 -14t-5 -25v-121q0 -22 10 -32t33 -10h327q113 0 163 -51t50 -162z"/>
<glyph glyph-name="afii10103" horiz-adv-x="459" unicode="і" d="M96 1357q0 56 39 95t95 39t95 -39t39 -95t-39 -95t-95 -39t-95 39t-39 95zM106 0v1065h248v-1065h-248z"/>
<glyph glyph-name="afii10104" horiz-adv-x="459" unicode="ї" d="M268 1357q0 56 39 95t95 39t96 -39q39 -39 39 -95t-39 -95q-40 -39 -96 -39t-95 39t-39 95zM-77 1357q0 56 39 95t95 39t95 -39t39 -95t-39 -95t-95 -39t-95 39t-39 95zM106 0v1065h248v-1065h-248z"/>
<glyph glyph-name="afii10105" horiz-adv-x="538" unicode="ј" d="M185 -171v1236h248v-1278q-1 -75 -23 -122t-69 -69t-122 -22h-347v213h270q23 0 33 10t10 32zM175 1357q0 56 39 95t95 39t95 -39t39 -95t-39 -95t-95 -39t-95 39t-39 95z"/>
<glyph glyph-name="afii10106" horiz-adv-x="1705" unicode="љ" d="M1382 447h-345v-234h345v234zM790 874h-8l-518 -874h-285l547 905q33 54 65 89q31 35 67 53t70 24t79 6q115 -1 173 -57t57 -156v-204h379q102 0 158 -56t56 -157v-234q0 -101 -56 -157t-158 -56h-412q-102 0 -158 56t-56 157v661z"/>
<glyph glyph-name="afii10107" horiz-adv-x="1614" unicode="њ" d="M1291 443h-346v-230h346v230zM699 1065h246v-409h380q67 0 115 -26t73 -73q25 -48 25 -114v-230q0 -101 -56 -157t-157 -56h-413q-101 0 -157 56t-56 157v230h-345v-443h-248v1065h248v-409h345v409z"/>
<glyph glyph-name="afii10108" horiz-adv-x="1115" unicode="ћ" d="M742 447h-325v-447h-246v878h-171v187h171v426h246v-426h469v-187h-469v-218h400q112 0 163 -50t51 -163v-447h-247v405q0 22 -10 32t-32 10z"/>
<glyph glyph-name="afii10109" horiz-adv-x="1038" unicode="ќ" d="M317 1284l260 322l158 -117l-262 -320zM673 449h-319v-449h-248v1065h248v-403h30l315 403h277l-324 -403h98q111 0 162 -50t51 -163v-449h-247v407q0 22 -10 32t-33 10z"/>
<glyph glyph-name="afii10110" horiz-adv-x="1064" unicode="ў" d="M479 1395h171q14 0 24 4q10 3 14 13t5 25v54h212v-70q0 -75 -22 -122t-69 -69t-121 -23h-256q-113 0 -163 51t-50 163v70h213v-54q0 -22 10 -32t32 -10zM345 1065v-809q0 -23 10 -33t33 -10h323v852h248v-1278q-1 -56 -13 -96q-12 -41 -38 -67t-66 -38t-96 -12h-618v213 h541q22 0 32 10t10 32v171h-400q-113 0 -163 51t-50 162v852h247z"/>
<glyph glyph-name="afii10193" horiz-adv-x="1055" unicode="џ" d="M388 213h281q15 1 25 5t13 14q4 10 4 24v809h248v-852q0 -111 -51 -162t-162 -51h-94v-298h-247v298h-94q-113 0 -163 51t-50 162v852h247v-809q0 -23 10 -33t33 -10z"/>
<glyph glyph-name="afii10050" horiz-adv-x="988" unicode="Ґ" d="M754 1256h-285q-64 0 -64 -63v-1193h-269v1256q0 128 53 182t181 53h307q65 0 65 64v256h246v-320q0 -127 -53 -181t-181 -54z"/>
<glyph glyph-name="afii10098" horiz-adv-x="787" unicode="ґ" d="M563 1108v278h225v-321q0 -113 -50 -163t-163 -50h-195q-35 -3 -35 -43v-809h-247v852q0 111 50 162t163 51h209q14 1 24 5t14 13t5 25z"/>
<glyph glyph-name="uni2002" horiz-adv-x="1010" unicode=" "/>
<glyph glyph-name="uni2003" horiz-adv-x="2020" unicode=" "/>
<glyph glyph-name="uni2009" horiz-adv-x="404" unicode=" "/>
<glyph glyph-name="endash" horiz-adv-x="1064" unicode="–" d="M85 486v213h895v-213h-895z"/>
<glyph glyph-name="emdash" horiz-adv-x="1618" unicode="—" d="M85 486v213h1449v-213h-1449z"/>
<glyph glyph-name="quoteleft" horiz-adv-x="565" unicode="‘" d="M502 1148l-199 -117l-240 400l201 115z"/>
<glyph glyph-name="quotesinglbase" horiz-adv-x="561" unicode="‚" d="M260 -213l-197 113l240 398l195 -111z"/>
<glyph glyph-name="quotedblleft" horiz-adv-x="949" unicode="“" d="M484 1136l-181 -110l-240 401l182 107zM886 1136l-181 -110l-238 401l181 107z"/>
<glyph glyph-name="quotedblright" horiz-adv-x="949" unicode="”" d="M648 1026l-181 110l238 398l181 -107zM245 1026l-182 110l240 398l181 -107z"/>
<glyph glyph-name="ellipsis" horiz-adv-x="1323" unicode="…" d="M937 138q0 64 44 108t108 44q63 0 107 -44t44 -108t-44 -107t-107 -43q-64 0 -108 43t-44 107zM512 138q0 64 44 108t106 44q64 0 108 -44t43 -108q1 -64 -43 -107t-108 -43t-106 43q-44 43 -44 107zM85 138q-1 64 43 108t108 44t108 -44t44 -108t-44 -107t-108 -43 t-108 43t-43 107z"/>
<glyph glyph-name="guilsinglleft" horiz-adv-x="699" unicode="‹" d="M616 980l-288 -392l288 -392l-173 -113l-358 505l358 505z"/>
<glyph glyph-name="guilsinglright" horiz-adv-x="699" unicode="›" d="M85 196l287 392l-287 392l173 113l358 -505l-358 -505z"/>
<glyph glyph-name="Euro" d="M451 1491h657v-235h-559q-63 0 -63 -63v-183h447v-187h-447v-154h447v-187h-447v-184q0 -64 63 -64h559v-234h-657q-128 0 -181 53t-53 181v248h-132v187h132v154h-132v187h132v246q-1 128 53 182t181 53z" unicode="€"/>
<glyph glyph-name="trademark" horiz-adv-x="1880" unicode="™" d="M1544 1301l-91 -281q-13 -37 -47 -57t-79 -20q-46 0 -80 19t-46 58l-91 281h-9v-662h-200v718q0 29 10 53t27 40t40 28q23 10 48 16t51 6q39 0 67 -4t52 -15t41 -33q16 -22 26 -53l60 -208h8l59 208q31 105 187 105q33 0 63 -8t57 -26q26 -16 41 -44t15 -65v-718h-200 v662h-9zM553 639h-212v664h-256v188h724v-188h-256v-664z"/>
</font>
</defs>
</svg>
